<svg xmlns="http://www.w3.org/2000/svg" viewBox="0 0 313.09 133.74"><defs><style>.cls-1{fill:#003866;fill-rule:evenodd}</style></defs><g id="Capa_2" data-name="Capa 2"><g id="Capa_1-2" data-name="Capa 1"><path class="cls-1" d="M11.56 13.35A78.74 78.74 0 001.48 16.8V29c0 3.5-.34 2.7 3.33 2.82 19.78.65 30.36 3.31 45.19 12.49a26.21 26.21 0 00-3.24-10.43c-9.93-7.25-19.27-10.82-31.51-11.66C49.92 14 81.05 47.2 69.5 81.56c-2.8-.75-8.52-3-13.79 1.47 2.56 7.12.51 18.25-9 17.6.34 3.28-1.43 7.73-6.24 11.3-6.71 4.11-17.11 5.5-22.27 2.41-6.42 1-11.1-.85-16.66-3.58v5.87a31.16 31.16 0 0010 3.9l2.53 11.33a3.37 3.37 0 003.3 1.88H34.5a3.42 3.42 0 003.13-1.88l2.44-11.66a54.37 54.37 0 006.67-2.2l8.84 7.8a3.23 3.23 0 003.61-.4l13-9.62a3.55 3.55 0 001.37-3.34l-4.86-10.72A55.34 55.34 0 0072.77 96l11.8 1.12c1.24 0 2.09-.81 2.64-2.45l4.87-15.43a3 3 0 00-.8-3.46L81 70a54.8 54.8 0 000-7l10.19-6c1.11-.59 1.26-1.86.65-3.62L86.69 38a2.62 2.62 0 00-2.62-2.3L72.28 37a53.79 53.79 0 00-4.17-5.65l4.68-10.83a2.64 2.64 0 00-1.47-3.28L58.18 7.88c-1.26-.88-2.48-1.14-3.61-.34l-8.71 8a54.27 54.27 0 00-6.7-2.12L36.59 1.83C36.17.49 35.15-.09 33.37 0H17.26c-1.89.06-2.75.83-3.14 1.85zm19 49.53H32a.28.28 0 01.28.28v.57A.27.27 0 0132 64h-1.45a.28.28 0 01-.28-.27v-.57a.29.29 0 01.28-.28m3.85-24.63a4.62 4.62 0 11-5.65 3.27 4.62 4.62 0 015.65-3.27m1 1.93a1.39 1.39 0 11-1.69 1 1.39 1.39 0 011.69-1M31.29 60.1A3.34 3.34 0 1128 63.44a3.35 3.35 0 013.34-3.34m0 1.65a1.7 1.7 0 11-1.7 1.69 1.69 1.69 0 011.7-1.69m8.79-20.27c3.34 1.42 6.8 2.94 10 4.65 0 .72-.11 1.48-.16 2.2a42.09 42.09 0 01-1.27 5.27c-4.92-2.14-13.36-2.46-18.64-1a9.6 9.6 0 01-4.93-10.27l1.22.36a6.94 6.94 0 0013.87-.25 6 6 0 00-.07-1m-3.93 21.87c-.06-3.06-2.38-4.8-5.25-5.34a34.44 34.44 0 00-8.67-.44c6.14-5 18.77-5.15 25.57-2.42a12.53 12.53 0 00-11.65 8.2M1.83 36.44c-.6 0-.72-2.91.1-2.89 9.46.23 17.49.82 26.74 3.72A6.8 6.8 0 0026.43 41c-8.15-2.78-16.12-3.82-24.6-4.56m.09 5c-.72-.12-.72-3.64-.06-3.55 7.39 1 14.36 1.72 21.58 3.85a11.25 11.25 0 00-.06 4.4 168.7 168.7 0 00-21.46-4.7m0 6.36c-.6-.18-1-4.58.15-4.39 7.38 1.32 14.56 2.44 21.8 4.5a15.83 15.83 0 003.57 5.49c-4.21 1.6-19.3-3.71-25.53-5.56m.16 10.53c-.6 0-1.83-8.88.41-8.25 7 2 14.33 4.15 21.39 4.93a18 18 0 00-3.49 2.48q-3.68 0-7.27.1c-3.68.14-7.36.46-11 .74m.12 6.21c-1.26 0-1.22-4.59 0-4.73a137.2 137.2 0 0126.53-.6 5 5 0 00-1 7.58 104.92 104.92 0 00-25.57-2.25m-.71 9.16v-6.52a.88.88 0 01.68-.94 71.84 71.84 0 0115 .23h.34a117 117 0 00-14.86 8.1.9.9 0 01-1 0c-.25-.18-.16-.53-.16-.84m36.13.85a15.83 15.83 0 01-4.67-6.5 5 5 0 002.78-2.48 12 12 0 001.9 7.77c.17.25.34.51.53.74.58.67.17 1-.54.47m-21 36.07C11.29 111 2 110.42 0 104.35a164.17 164.17 0 0122.39-37.17l2.11.36c-5.95 14-7.65 27.94-7.89 43.12m-14.13-18C.72 93.85-1.41 79.91 2.48 77c4.29-3 8.38-5.55 13-8.47l3-1.87c.66.07 1.31.15 2 .24-.56.62-1.69 1.9-1.9 2.12C13 75.22 6.47 86.23 2.48 92.71m51.75-38.79c1.34.47-.26 4.89-1.24 4.63a3.41 3.41 0 00-2.8.63 43 43 0 012.86 7.34c.2.87.45 3-.54 3.55-.68.41-1.85.3-3.44.48l-.23 1.65c.11.23.41.32.39.49a1.61 1.61 0 01-1.61 1.11c.15.56.54.8.39 1.65-.09.52-1.07.6-1.72 1s-.35.55-.74.59h-.26c-9.23-1.62-9.56-13.28-2.64-17.75l2.12.7c.6.19.54.23-.12.45a5.42 5.42 0 01-.84.19c-.73.15-.8.14 0 .4s1.92.51 2.56.74c.33.12.32.23.57-.12a1.27 1.27 0 00.07-1.3 2.21 2.21 0 001.15-.35c.67-.4.45-.64-.24-.6a4.42 4.42 0 01-1.35 0l-3-.83a8.55 8.55 0 015.88-1.89l1.1-4.09zm-7.17 25.21c2.81 2.4 7 .64 4.74 2.4-7.6 5.76-18.8-4.27-20.28-12.67h1c1.56 3.4 2.05 4.75 5.31 7.21a10.54 10.54 0 005.91 2.2c2 .18 1.71-.52 3.33.86m18.84-29.61c1.87 4.75 1.67 11.23-2.55 13.83-1.47.9-2-.09-1-1.2.83-.86.79-2.66.52-3.6-1.08-3.91-8.36-6.45-11.81-7.55a21.69 21.69 0 00-1.4-14.55c6.92 2 13.51 6.05 16.24 13M21.35 112c-1.09-11.83-.42-33.39 4.71-44.2 1.15.23 2.26.58 3.44.78 0 .19-.11 1.58-.12 1.7-1 16 5.26 26.1 14.51 30.74-1 10.39-14.16 12.7-22.54 11m32.59-28c2.19 3.7-1.11 13.61-5.66 14.44-11.9-2.55-19.13-18.63-18-29.78.17 0 .34 0 .51.06a14 14 0 00.36 1.8c2.24 8.75 13.17 18.34 22.83 13.48m92.69-21.47V50h-3.89v-3.38h10.67V50h-3.86v12.55zM252.1 52v-4.4a5.41 5.41 0 00-8.28.94 10 10 0 00-1.82 6.05 9.51 9.51 0 002.44 6.74 5.29 5.29 0 007.66.21v-4c-1.68 1.85-4.42 3-6.17.59a6 6 0 01-1-3.54 6.06 6.06 0 011-3.58c1.46-2.06 3.65-1.66 5.22 0zm-35.65-7.1l1-1.33-.72-.94-1.73 2.25zm-42 7.14V47.6a5.4 5.4 0 00-8.28.94 10 10 0 00-1.82 6.05 9.51 9.51 0 002.44 6.74 5.29 5.29 0 007.66.21v-4c-1.68 1.85-4.42 3-6.17.59a6 6 0 01-1-3.54 6.06 6.06 0 011-3.58c1.45-2.06 3.65-1.66 5.22 0zm60.45 3v-1.33h-5.2V57h2.3v2.31a4.24 4.24 0 01-1.58.34c-2.3 0-3.72-2.22-3.72-5.13a5.73 5.73 0 011.08-3.58 3.27 3.27 0 014.49-.91 6.77 6.77 0 011.73 1.59l.31-4a6.7 6.7 0 00-1.88-1.16 5.77 5.77 0 00-6.78 2 9.67 9.67 0 00-1.87 6.11c0 4.89 2.72 8.46 6.48 8.46a8.84 8.84 0 004.66-1.61zm2.45 7.52h2.92V46.62h-2.92zM202.49 48v14.6h7.67v-3.47h-4.76V46.62h-2.92zm-26.08 0v14.6h2.69v-8.74l7.13 8.69h.77V46.62h-2.7v8.78l-7.18-8.78h-.71zm-21.13 0v14.6h7.6v-3.4h-4.77v-3.15h2.74v-3.26h-2.74v-2.88h4.7v-3.29h-7.54zm33.22 6.64c0-4.64 2.65-8.48 6.24-8.48S201 50 201 54.59s-2.6 8.48-6.23 8.48-6.24-3.9-6.24-8.48m3 0c0 2.46 1.19 4.88 3.23 4.88s3.22-2.4 3.22-4.88-1.17-4.91-3.22-4.91-3.23 2.44-3.23 4.91m18.51 0a11.08 11.08 0 01.47-3.31c.93-3.11 3.19-5.17 5.76-5.17 3.66 0 6.23 3.88 6.23 8.48s-2.63 8.48-6.23 8.48-6.27-3.94-6.27-8.48m3 0c0 2.46 1.19 4.88 3.23 4.88s3.23-2.4 3.23-4.88-1.17-4.91-3.23-4.91-3.23 2.44-3.23 4.91m46.2-8.48c2.54 0 4.86 2.06 5.77 5.15a11.46 11.46 0 01.46 3.33c0 4.6-2.59 8.48-6.23 8.48s-6.2-3.92-6.2-8.45 2.59-8.51 6.23-8.51M256 54.59c0 2.46 1.19 4.88 3.23 4.88s3.23-2.4 3.23-4.88-1.17-4.91-3.23-4.91-3.23 2.44-3.23 4.91m31.82 21.1c-1.64-1.6-3.95-2-5.47 0a6.53 6.53 0 000 7.08c1.82 2.4 4.7 1.26 6.47-.59v4a5.77 5.77 0 01-8-.2c-3.15-3-3.43-9.19-.66-12.71a5.89 5.89 0 018.7-.94v4.47zm-33.39-5.32l.61-.76-.75-.93-1.37 1.69zm19.32 2.36v14.51h3.06V71.42h-3.06zm-10.14 6.33L259 87.24h3.35l2.95-5.37 3.12 5.37h3.77l-5.06-8.51 4.13-7.31h-3.33l-2.49 4.52-2.64-4.52h-3zm-13.68-6.33v14.51h8v-3.33h-5v-3.13h3v-3.24h-3v-2.86h4.93v-3.26h-7.9zM236 71.42l-2.6 15.82h2.73l1.13-7.33 3.38 7.33h.79L244.6 80l1.09 7.23h2.91L246 71.42h-.54l-4.34 9.79-4.6-9.79zm57 7.91c0 2.44 1.25 4.85 3.38 4.85s3.39-2.39 3.39-4.85-1.23-4.87-3.39-4.87-3.38 2.42-3.38 4.87m-3.16 0c0-4.54 2.73-8.43 6.54-8.43s6.54 3.87 6.54 8.43-2.76 8.42-6.54 8.42-6.54-3.9-6.54-8.42m-84.78-6.82v14.43h3.39a7.25 7.25 0 004.48-1.18 7.76 7.76 0 003.14-6.68 8 8 0 00-2-5.77 7.42 7.42 0 00-5.6-2.1h-3.39zm12.72 0v14.43h7.93v-3.31h-5v-3.11H224V77.3h-3.23v-2.85h4.9v-3.24h-7.86zm-30 14.43h8v-3.38h-5V71.21h-3zm-14 0h3.07l.83-2.29h5.17l.82 2.29h3.18l-6.17-15.73h-.58zm4.78-5l1.7-4.93L181.9 82zm-16.76-9.43v14.43h2.81v-8.58l7.39 8.53h.83V71.21H170v8.67l-7.51-8.67h-.72zm-19.1 0v14.43h3.05V71.21h-3.05zm-3.51 2.94c-1.63-1.59-3.93-2-5.45 0a5.8 5.8 0 00-1 3.54 5.64 5.64 0 001 3.5c1.83 2.39 4.69 1.25 6.44-.59v4a5.75 5.75 0 01-8-.2 9.12 9.12 0 01-2.54-6.66 9.65 9.65 0 011.89-6 5.86 5.86 0 018.65-.93v4.4zm-21.92 11.49h3.06l.83-2.29h5.18l.8 2.29h3.19l-6.17-15.73h-.58zM122 82l1.7-4.93 1.7 4.93zm-16.74 5V71.27h.74l7.5 8.67v-8.73h2.81v15.73h-.83l-7.4-8.58v8.58zm42.21-7.86c0-4.59 2.76-8.39 6.5-8.39s6.51 3.84 6.51 8.39-2.71 8.38-6.51 8.38-6.5-3.83-6.5-8.38m3.13 0c0 2.43 1.25 4.82 3.37 4.82s3.37-2.38 3.37-4.82-1.22-4.85-3.37-4.85-3.37 2.4-3.37 4.85m57.43 4.48v-9h.67a4 4 0 013.12 1.21 4.6 4.6 0 011.18 3.25 4.55 4.55 0 01-1.13 3.29 4 4 0 01-3.12 1.19zM309 79.38a4.12 4.12 0 11-4.12 4.09 4.08 4.08 0 014.12-4.09m0 .55a3.56 3.56 0 103.54 3.56 3.54 3.54 0 00-3.54-3.56"/><path class="cls-1" d="M308.11 83.93v1.79h-.79v-4.48a14.16 14.16 0 012.52.08 1.22 1.22 0 01.75 1.88 1.31 1.31 0 01-.82.44h.13a1.18 1.18 0 01.82 1.11v1h-.68v-.4c0-.22 0-.45-.05-.67a.75.75 0 00-.73-.67c-.37 0-.75 0-1.15-.06m0-.54h.67a3.82 3.82 0 00.68-.07.68.68 0 00.56-.72c0-.41-.13-.66-.47-.76a5.37 5.37 0 00-1.44-.08z"/></g></g></svg>