<svg width="866" height="773" viewBox="0 0 866 773" fill="none" xmlns="http://www.w3.org/2000/svg">
<path d="M416.763 765.743C416.765 761.904 417.031 752.969 417.355 745.887L417.944 733.011L421.629 733.28L425.314 733.55L425.141 738.953C425.046 741.925 424.699 750.738 424.371 758.539L423.774 772.721H420.267H416.76L416.763 765.743ZM376.688 769.078C374.212 768.692 369.594 768.341 366.427 768.298L360.668 768.219L361.243 759.439C362.335 742.781 363.501 730.437 364.069 729.519C364.755 728.409 368.119 728.331 369.783 729.386C370.767 730.009 370.807 732.484 370.005 743.104C369.467 750.231 368.781 757.534 368.48 759.332L367.933 762.602L378.87 763.746C384.886 764.376 389.977 765.164 390.183 765.498C390.39 765.832 390.328 766.986 390.047 768.063C389.608 769.741 388.941 770.003 385.363 769.9C383.068 769.834 379.164 769.464 376.688 769.078ZM452.712 767.994C452.366 766.831 451.827 762.796 451.058 755.612C450.554 750.907 449.673 743.278 449.1 738.657C448.51 733.902 448.399 729.95 448.843 729.549C449.498 728.957 475.482 726.582 475.825 727.082C475.887 727.173 476.192 728.306 476.501 729.6C477.057 731.921 476.98 731.962 471 732.551C456.393 733.988 456.381 733.991 456.381 736.706C456.381 738.066 456.627 740.408 456.927 741.91L457.473 744.641L466.607 744.499L475.741 744.356V746.607C475.741 748.199 475.214 748.911 473.94 749.037C472.95 749.134 468.951 749.477 465.054 749.799L457.969 750.383L458.574 755.924C458.906 758.972 459.411 762.985 459.696 764.842L460.213 768.219H456.496C454.452 768.219 452.749 768.118 452.712 767.994ZM334.398 764.733C331.714 764.157 331.378 763.533 329.927 756.432C329.492 754.302 328.792 753.971 321.841 752.605C311.442 750.562 311.247 750.593 308.702 754.712C306.896 757.634 305.963 758.311 303.761 758.3C298.008 758.271 298.278 757.561 310.806 739.796L322.831 722.745L326.347 723.049C328.281 723.216 330.192 723.666 330.593 724.049C331.336 724.757 333.197 733.382 336.627 752.01C337.676 757.706 338.738 763.075 338.987 763.942C339.466 765.609 338.924 765.703 334.398 764.733ZM328.512 747.959C328.512 746.789 325.609 730.812 325.347 730.543C325.184 730.375 322.802 733.595 320.054 737.699C317.307 741.803 315.196 745.298 315.365 745.466C315.637 745.739 326.145 748.157 327.837 748.337C328.208 748.376 328.512 748.206 328.512 747.959ZM510.74 754.991C507.316 754.32 501.745 748.683 499.617 743.736C497.109 737.907 496.811 729.457 498.967 725.328C502.046 719.435 510.402 715.091 518.659 715.091C529.691 715.091 538.409 724.682 538.64 737.072C538.801 745.727 535.04 750.963 526.178 754.418C523.563 755.438 514.699 755.766 510.74 754.991ZM524.245 748.968C525.879 748.285 528.134 746.563 529.256 745.141C533.17 740.178 530.505 727.245 524.72 723.126C521.665 720.95 514.557 720.598 510.757 722.434C503.749 725.82 502.985 737.138 509.203 745.465C512.433 749.79 518.754 751.262 524.245 748.968ZM261.426 743.759C256.339 741.12 254.788 739.559 252.698 734.969C248.116 724.913 255.072 710.291 266.195 706.597C270.279 705.241 271.599 705.173 275.639 706.114C284.569 708.192 289.586 712.506 291.102 719.41C291.674 722.013 291.531 722.293 289.638 722.282C285.774 722.259 283.488 721.226 283.488 719.502C283.488 718.577 282.306 716.497 280.861 714.88C278.448 712.18 277.792 711.939 272.851 711.939C266.441 711.939 264.766 713.136 261.319 720.183C258.351 726.248 258.03 733.044 260.577 735.859C264.932 740.67 269.872 741.43 274.848 738.053C276.672 736.815 278.49 735.802 278.888 735.802C279.93 735.802 283.488 739.019 283.486 739.959C283.486 740.397 281.721 741.869 279.565 743.231C274.56 746.392 266.931 746.614 261.426 743.759ZM566.61 735.503C566.277 734.429 565.275 731.93 564.383 729.949C563.491 727.967 561.277 722.7 559.463 718.242C557.65 713.785 555.365 708.376 554.386 706.223C553.408 704.07 552.796 701.816 553.027 701.215C553.55 699.851 568.56 694.521 575.353 693.287C579.295 692.571 580.968 692.64 582.926 693.599C586.68 695.438 588.964 699.083 589.078 703.414C589.167 706.799 588.765 707.58 585.396 710.569L581.615 713.925L585.305 715.031C588.944 716.121 601.359 723.912 601.359 725.106C601.359 725.804 596.319 727.697 594.461 727.697C593.787 727.697 591.315 726.364 588.968 724.734C581.035 719.227 577.949 717.792 574.068 717.806C567.613 717.829 567.308 718.54 570.577 725.943C572.984 731.391 574.163 735.802 573.213 735.802C573.086 735.802 571.684 736.174 570.098 736.629C567.557 737.357 567.143 737.224 566.61 735.503ZM569.437 713.398C569.907 712.963 571.913 712.107 573.894 711.497C579.915 709.642 581.548 708.209 581.548 704.779C581.548 698.524 577.678 697.506 567.68 701.133C564.266 702.371 561.326 703.384 561.147 703.384C560.968 703.384 561.206 704.093 561.676 704.96C562.147 705.827 563.241 708.258 564.109 710.363C565.635 714.066 567.541 715.152 569.437 713.398ZM197.437 710.319C195.168 708.687 194.794 707.939 195.321 706.086C197.143 699.682 196.626 698.703 189.02 694.145C185.103 691.797 181.536 689.877 181.093 689.877C180.65 689.877 178.575 691.137 176.481 692.676L172.675 695.475L169.587 693.359C167.889 692.196 166.787 690.991 167.138 690.682C167.489 690.373 175.57 684.971 185.096 678.678C203.063 666.807 203.466 666.652 207.716 669.931L209.836 671.566L207.954 680.947C206.918 686.106 205.057 695.19 203.817 701.133C202.577 707.076 201.559 712.04 201.554 712.164C201.526 712.816 199.891 712.083 197.437 710.319ZM198.697 689.652C200.274 684.493 201.721 677.352 201.391 676.361C201.215 675.832 197.769 677.738 193.735 680.598L186.399 685.796L191.495 689.184C194.298 691.048 196.864 692.574 197.197 692.576C197.53 692.577 198.205 691.262 198.697 689.652ZM615.341 705.596C614.022 703.346 609.297 696.011 604.841 689.296C600.385 682.581 596.965 676.861 597.241 676.585C597.517 676.309 598.861 675.387 600.226 674.537C602.65 673.027 602.851 673.06 608.563 675.913C627.135 685.19 633.812 688.34 634.161 687.991C634.377 687.776 631.156 682.368 627.005 675.973C622.854 669.578 619.64 664.052 619.862 663.693C620.462 662.721 625.672 661.047 625.672 661.826C625.672 662.194 626.294 663.288 627.055 664.255C627.816 665.223 630.12 668.648 632.174 671.867C634.229 675.087 638.266 681.308 641.146 685.693C644.026 690.078 646.383 693.965 646.383 694.331C646.383 694.697 645.037 695.721 643.392 696.607L640.402 698.217L626.058 691.283C618.169 687.469 611.512 684.275 611.264 684.186C609.536 683.563 611.259 687.146 616.743 695.582C620.232 700.949 623.278 705.841 623.513 706.453C623.898 707.455 620.444 709.688 618.511 709.688C618.086 709.688 616.66 707.847 615.341 705.596ZM377.015 679.197C376.829 678.667 372.885 678.148 367.859 677.993L359.03 677.72L355.003 669.166C352.788 664.461 350.259 659.193 349.383 657.46L347.79 654.308L339.622 654.051L331.453 653.793L322.304 661.519C314.245 668.323 312.996 669.087 311.828 667.918C310.324 666.415 301.411 663.585 297.662 663.421C294.571 663.286 294.926 664.332 291.543 645.379C291.109 642.944 290.404 640.602 289.976 640.175C289.549 639.748 285.243 637.984 280.408 636.256L271.617 633.114L261.242 638.648C255.398 641.765 250.618 643.803 250.294 643.314C249.082 641.484 234.101 633.994 233.523 634.929C232.762 636.16 231.237 635.222 231.675 633.793C231.861 633.19 232.256 627.801 232.553 621.817L233.094 610.939L225.649 606.327C221.554 603.79 217.649 601.23 216.972 600.638C214.824 598.759 211.552 599.329 195.627 604.358C191.795 605.568 189.838 605.45 189.838 604.007C189.838 603.334 187.407 600.643 184.435 598.028C178.587 592.88 178.182 591.638 179.888 584.07C180.335 582.089 180.946 577.485 181.246 573.838C181.762 567.582 181.653 567.024 179.31 563.933C171.985 554.267 171.574 554.076 161.576 555.698C147.625 557.961 145.714 558.135 145.713 557.144C145.712 556.6 144.801 555.086 143.687 553.78C142.573 552.473 140.339 549.515 138.722 547.206C137.105 544.897 135.383 543.255 134.895 543.557C133.104 544.663 134.136 541.958 139.963 530.265L145.919 518.315L142.05 512.022C136.072 502.297 137.166 502.915 124.693 502.222C115.455 501.709 105.504 500.225 109.47 499.952C110.089 499.91 110.595 499.434 110.595 498.895C110.595 497.323 105.147 485.996 104.071 485.331C103.469 484.959 106.287 480.5 111.379 473.769L119.667 462.813L117.114 454.555L114.561 446.296L103.348 442.486C97.1811 440.39 90.758 438.211 89.0745 437.644C86.5203 436.784 86.2626 436.474 87.5176 435.771C88.3448 435.308 88.8313 434.622 88.5986 434.245C88.3661 433.869 87.9213 431.205 87.6103 428.325C87.2993 425.445 86.6826 422.136 86.2398 420.971C85.5233 419.087 86.5205 417.701 95.3136 408.367L105.192 397.881V390.82V383.76L98.6639 379.631C95.0732 377.36 89.6507 373.945 86.6139 372.043L81.0924 368.585L81.8174 364.217C82.2161 361.815 82.7166 357.723 82.9294 355.122C83.2809 350.829 83.1468 350.395 81.4676 350.395C78.956 350.395 80.128 349.446 87.633 345.402C91.0998 343.534 96.7078 340.449 100.095 338.546C103.483 336.643 106.584 335.087 106.987 335.087C107.39 335.087 107.907 331.136 108.136 326.307L108.551 317.527L99.2177 308.498C94.0843 303.533 89.8842 299.153 89.8842 298.765C89.8842 298.378 90.244 298.283 90.6838 298.555C91.1236 298.827 92.6783 294.738 94.1386 289.47L96.7937 279.891L104.82 277.711C109.235 276.513 114.038 275.244 115.495 274.892C117.832 274.327 118.546 273.258 121.573 265.788C123.459 261.133 125.003 256.767 125.003 256.085C125.003 255.404 122.369 250.65 119.15 245.522C115.931 240.394 113.297 235.801 113.297 235.315C113.297 234.83 113.937 234.489 114.72 234.558C116.706 234.732 125.239 218.943 123.978 217.424C122.998 216.243 122.456 216.371 137.16 214.31C141.617 213.685 145.669 212.735 146.164 212.198C146.66 211.661 148.847 208.635 151.025 205.473L154.986 199.723L153.946 192.89C152.574 183.873 152.623 178.709 154.086 178.147C154.729 177.9 157.571 174.867 160.403 171.406C163.909 167.12 165.367 164.632 164.974 163.607C164.51 162.398 164.817 162.193 166.536 162.563C171.752 163.686 186.209 167.033 190.577 168.13C194.247 169.051 195.76 169.089 197.039 168.29C198.956 167.093 199.139 167.364 188.04 154.99C184.708 151.276 175.51 140.942 167.6 132.028C159.69 123.113 151.52 114.004 149.446 111.786C145.841 107.93 145.749 107.692 147.351 106.383C148.274 105.629 150.56 101.366 152.431 96.9088C154.303 92.4514 156.961 86.3732 158.338 83.4016C163.949 71.2944 166.21 66.1934 166.797 64.3159C167.27 62.8038 168.233 62.2748 170.894 62.0647L174.373 61.79L169.02 53.2354C166.076 48.5304 162.017 42.0903 160 38.9241L156.333 33.1673L158.227 29.7966C159.269 27.9427 160.122 25.9725 160.122 25.4182C160.122 24.8639 157.878 22.3031 155.136 19.7274L150.15 15.0443L150.408 7.84203C150.66 0.829295 150.726 0.63974 152.918 0.638453C155.891 0.636742 171.812 1.80334 183.084 2.84893C188.037 3.30833 195.736 3.90261 200.193 4.16955C204.651 4.4365 209.919 4.85465 211.9 5.09878C213.881 5.34292 219.351 5.75228 224.056 6.00849C233.28 6.51074 246.633 7.97616 247.206 8.54899C248.318 9.66046 246.006 18.6778 243.761 21.99C242.351 24.0694 241.189 26.3785 241.177 27.1214C241.152 28.76 243.336 35.5677 246.234 42.8798C248.634 48.9367 248.949 55.262 247.019 58.6383C246.311 59.8765 245.717 61.1934 245.7 61.5649C245.682 61.9363 269.373 62.2402 298.346 62.2402H351.024V45.5813V28.9224H398.3H445.575V45.577V62.2317L536.749 62.4611L627.923 62.6905L638.965 84.7523C645.039 96.8863 650.421 106.954 650.927 107.125C651.876 107.445 633.87 126.945 614.013 147.104C607.796 153.416 602.589 159.136 602.441 159.816C602.294 160.497 604.232 162.777 606.748 164.884L611.323 168.715L615.571 167.619C617.907 167.017 620.832 166.205 622.07 165.814C624.097 165.175 627.05 164.353 633.776 162.556C635.924 161.982 635.958 162.032 634.521 163.65C633.087 165.264 633.304 165.66 639.026 171.874C642.333 175.465 645.746 178.403 646.611 178.403C647.476 178.403 648.184 178.627 648.184 178.902C648.184 179.719 643.734 195.293 642.261 199.634L640.897 203.652L645.115 209.352L649.334 215.052L662.272 216.235C670.88 217.022 675.132 217.758 674.979 218.432C674.611 220.05 680.505 230.477 681.967 230.793C683.131 231.046 683.129 231.395 681.947 233.66C681.207 235.079 680.601 236.396 680.601 236.587C680.601 236.778 682.425 236.934 684.653 236.934H688.706V251.731C688.706 265.716 688.607 266.56 686.913 267.098C684.351 267.911 683.706 267.248 682.011 262.068C680.473 257.366 676.406 250.441 675.181 250.441C674.514 250.441 672.386 254.454 670.846 258.616C670.017 260.857 670.979 263.619 675.115 270.868C677.165 274.462 677.54 274.682 683.21 275.613C686.48 276.15 690.371 276.738 691.857 276.92C700.615 277.991 704.014 278.677 704.014 279.373C704.014 279.804 703.581 280.157 703.053 280.157C702.524 280.157 702.297 280.866 702.547 281.733C706.963 296.997 707.855 299.113 709.637 298.547C713.216 297.411 711.332 299.329 695.144 313.303C691.819 316.174 689.606 318.799 689.606 319.875C689.606 321.519 689.933 321.441 693.595 318.921C696.881 316.661 698.478 316.177 702.645 316.177C708.401 316.177 711.814 317.636 715.05 321.483C719.97 327.33 718.789 335.261 712.257 340.236L708.344 343.216L712.707 345.121C718.133 347.49 718.011 347.369 716.633 349.029C715.806 350.026 715.656 352.216 716.094 356.93C717.101 367.771 717.52 369.305 719.475 369.305C722.241 369.305 720.671 370.697 715.975 372.408C713.606 373.271 710.452 374.488 708.966 375.112C707.481 375.735 703.724 377.168 700.618 378.295C697.512 379.422 694.815 380.597 694.625 380.905C694.434 381.212 693.996 385.111 693.651 389.567L693.023 397.67L703.696 404.146C709.566 407.707 715.18 411.24 716.17 411.996C717.956 413.36 717.955 413.372 716.009 413.4C713.92 413.431 713.465 414.953 711.493 428.512C710.718 433.839 710.773 434.145 712.522 434.232C714.75 434.343 705.032 436.606 699.962 437.157C696.3 437.554 690.764 438.418 687.169 439.152C685.696 439.452 685.028 440.427 684.586 442.927C684.258 444.78 683.435 448.49 682.757 451.17C681.461 456.292 681.45 456.249 685.283 460.704C689.486 465.59 698.611 477.617 698.611 478.271C698.611 478.68 698.287 479.149 697.892 479.314C697.497 479.479 695.878 482.817 694.295 486.732C692.188 491.943 691.675 494.16 692.379 495.008C693.428 496.272 693.68 496.213 679.654 497.996C675.419 498.534 670.532 498.975 668.795 498.975C667.058 498.975 664.973 499.481 664.161 500.1C662.715 501.203 656.288 514.285 656.288 516.126C656.288 516.64 658.744 522.044 661.745 528.134L667.202 539.208L664.221 542.408C660.173 546.753 657.189 550.832 657.189 552.02C657.189 552.69 652.612 553.004 642.846 553.004H628.504L623.039 559.745L617.573 566.486L620.364 577.079C624.357 592.236 624.286 591.827 622.807 591.259C622.015 590.956 619.071 593.302 615.077 597.42L608.627 604.072L604.318 603.307C601.947 602.886 598.387 602.172 596.406 601.722C594.425 601.271 590.449 600.433 587.571 599.859L582.338 598.817L576.16 604.5L569.982 610.184L569.912 620.658L569.842 631.131L561.747 635.842C557.295 638.434 553.875 640.913 554.146 641.352C555.27 643.171 551.923 641.833 541.149 636.157L529.77 630.162L523.909 632.876C520.686 634.368 517.204 635.857 516.173 636.184C514.588 636.687 514.124 637.997 513.18 644.643C511.639 655.489 510.357 661.135 509.548 660.635C508.739 660.135 506.163 660.879 496.36 664.44L489.064 667.09L482.403 661.313C478.739 658.136 474.552 654.321 473.098 652.835C471.232 650.928 469.908 650.286 468.596 650.652C467.573 650.938 463.9 651.828 460.433 652.63C456.966 653.432 453.827 654.542 453.456 655.098C453.086 655.654 451.293 660.769 449.472 666.464C446.189 676.732 444.675 680.039 444.675 676.939C444.675 675.86 444.168 675.486 443.099 675.779C442.232 676.015 437.572 676.723 432.743 677.35C427.914 677.978 423.963 678.917 423.963 679.437C423.963 680.419 417.167 671.403 411.555 662.977L408.333 658.139L400.615 658.753C391.703 659.462 392.004 659.242 383.915 670.967C377.496 680.27 377.422 680.359 377.015 679.197ZM377.449 671.61C377.732 668.532 377.965 663.786 377.968 661.062C377.97 658.338 378.38 650.233 378.878 643.052C379.375 635.871 380.208 622.296 380.729 612.886C381.249 603.476 382.064 589.09 382.539 580.919C383.015 572.747 383.608 562.356 383.856 557.828L384.309 549.596L381.158 549.005C379.426 548.68 377.65 548.635 377.212 548.906C376.774 549.177 376.156 551.932 375.839 555.028C375.522 558.124 374.892 563.292 374.438 566.511C373.985 569.73 373.183 575.908 372.657 580.241C369.885 603.081 367.673 620.453 365.407 637.199C364.938 640.666 364.336 645.731 364.07 648.455C363.804 651.179 363.401 654.42 363.173 655.659C362.946 656.897 362.524 660.114 362.236 662.809C361.948 665.503 361.384 669.459 360.985 671.6C360.325 675.132 360.434 675.531 362.169 675.909C364.357 676.386 367.852 676.736 373.21 677.013L376.935 677.205L377.449 671.61ZM431.167 676.299C436.948 675.354 440.374 674.872 442.733 674.671C443.994 674.564 443.784 670.753 441.961 660.611C440.534 652.674 439.355 645.584 437.471 633.597C436.459 627.158 435.25 619.662 434.785 616.938C434.32 614.214 433.501 609.149 432.965 605.682C431.797 598.128 431.484 596.245 429.74 586.321C429 582.112 428.202 577.452 427.965 575.966C427.728 574.48 427.304 572.14 427.023 570.765C426.742 569.391 426.378 566.959 426.215 565.362C426.052 563.765 425.417 559.123 424.803 555.047C423.705 547.747 423.653 547.643 421.349 548.125C420.063 548.394 418.041 548.814 416.855 549.058C414.729 549.495 414.708 549.602 415.322 556.88C415.997 564.88 417.124 579.517 418.592 599.378C420.851 629.925 421.31 636.061 422.159 647.104C422.654 653.543 423.324 662.964 423.647 668.04C423.97 673.117 424.478 677.267 424.775 677.263C425.071 677.26 427.948 676.826 431.167 676.299ZM313.561 663.988C314.275 661.634 323.901 626.448 325.816 619.189C329.143 606.585 339.872 567.811 341.141 563.809C344.154 554.307 346.719 542.938 346.006 542.241C345.547 541.792 344.145 541.172 342.892 540.863C340.771 540.34 340.468 540.696 338.538 545.977C334.051 558.251 329.148 571.801 326.709 578.667C325.302 582.629 322.549 590.329 320.591 595.777C318.634 601.224 314.934 611.557 312.369 618.739C309.804 625.92 306.946 633.822 306.018 636.298C305.089 638.775 303.065 644.448 301.519 648.905C299.973 653.362 298.295 657.758 297.79 658.673C296.583 660.857 296.968 661.152 304.043 663.456C311.521 665.891 312.959 665.972 313.561 663.988ZM507.398 659.002C508.362 658.406 505.7 650.115 501.799 641.565C501.087 640.004 500.505 638.463 500.505 638.139C500.505 637.815 499.749 635.85 498.826 633.773C497.902 631.695 494.635 623.511 491.566 615.587C488.497 607.663 485.627 600.369 485.188 599.378C484.749 598.388 481.55 590.284 478.078 581.369C474.606 572.454 469.418 559.247 466.55 552.02L461.334 538.88L457.42 540.193C452.785 541.747 452.772 541.042 457.717 557.056C459.553 562.999 461.388 569.077 461.795 570.563C462.203 572.049 463.814 577.519 465.376 582.72C469.022 594.857 477.017 621.982 477.984 625.492C478.393 626.978 480.622 634.475 482.937 642.151C485.252 649.828 487.756 658.163 488.502 660.674L489.857 665.239L498.116 662.437C502.658 660.895 506.835 659.35 507.398 659.002ZM254.726 635.173C256.481 631.83 261.597 622.408 266.095 614.236C270.594 606.065 275.736 596.666 277.524 593.351C279.311 590.037 281.992 585.257 283.481 582.731C284.971 580.205 286.19 577.989 286.19 577.808C286.19 577.626 287.751 574.706 289.659 571.319C291.568 567.932 295.072 561.513 297.447 557.056C299.822 552.598 302.075 548.546 302.454 548.051C303.595 546.559 313.216 528.4 312.976 528.191C312.228 527.54 305.456 524.188 304.888 524.188C304.509 524.188 304.199 524.61 304.199 525.127C304.199 525.643 303.78 526.555 303.268 527.153C302.444 528.114 294.028 541.043 279.699 563.359C277.155 567.321 272.565 574.413 269.5 579.118C266.434 583.823 261.581 591.319 258.715 595.777C255.849 600.234 251.679 606.717 249.449 610.184C247.218 613.651 243.445 619.527 241.063 623.241C238.681 626.956 236.311 630.484 235.797 631.082C234.364 632.749 234.554 632.988 239.139 635.285C241.492 636.463 245.037 638.272 247.019 639.303C249 640.335 250.826 641.195 251.078 641.215C251.33 641.235 252.971 638.516 254.726 635.173ZM564.664 632.534C566.521 631.373 568.041 630.201 568.041 629.93C568.041 629.437 547.902 599.484 538.418 585.871C535.658 581.909 531.57 575.988 529.333 572.714C520.16 559.28 513.297 549.19 505.209 537.245C500.514 530.311 496.218 524.171 495.662 523.601C494.902 522.821 493.817 523.101 491.291 524.729L487.931 526.895L489.825 530.269C494.116 537.916 511.703 568.106 513.68 571.219C514.853 573.066 515.813 574.781 515.813 575.03C515.813 575.28 517.434 578.132 519.415 581.369C521.396 584.605 523.017 587.427 523.017 587.64C523.017 587.852 526.016 593.012 529.682 599.105C533.348 605.199 537.501 612.232 538.912 614.734C540.322 617.237 544.088 623.814 547.279 629.35L553.081 639.417L557.184 637.031C559.441 635.719 562.807 633.696 564.664 632.534ZM198.843 594.694C202.557 590.455 208.433 583.873 211.9 580.067C224.327 566.425 232.82 556.988 236.256 553.004C238.178 550.775 241.855 546.723 244.428 543.999C247 541.275 251.675 536.139 254.815 532.586C257.956 529.033 264.746 521.386 269.904 515.593L279.283 505.06L277.108 503.388C274.801 501.614 272.682 501.165 272.682 502.45C272.682 502.876 261.438 514.09 247.694 527.37C233.95 540.651 213.265 560.842 201.727 572.239L180.749 592.962L185.969 597.705C188.84 600.313 191.391 602.437 191.639 602.424C191.886 602.412 195.128 598.933 198.843 594.694ZM613.755 582.269C609.646 578.307 589.495 558.857 568.976 539.046C548.457 519.235 530.474 501.886 529.016 500.492L526.364 497.958L522.926 501.314C520.75 503.439 519.731 505.103 520.149 505.85C520.512 506.499 524.889 511.397 529.874 516.735C534.86 522.072 540.892 528.668 543.279 531.392C545.665 534.116 547.866 536.547 548.168 536.795C548.864 537.364 576.304 567.205 584.7 576.521C588.167 580.368 594.853 587.772 599.558 592.975L608.112 602.434L614.67 595.954L621.227 589.473L613.755 582.269ZM153.818 550.592C154.991 549.649 177.844 532.489 226.758 495.823C234.026 490.375 242.672 483.945 245.972 481.535C252.123 477.041 252.943 475.689 250.665 473.798C249.613 472.925 248.602 473.228 245.487 475.346C243.358 476.793 238.581 479.737 234.872 481.888C231.163 484.038 227.719 486.137 227.218 486.551C225.883 487.654 210.423 497.174 209.965 497.174C209.751 497.174 208.478 497.942 207.136 498.881C201.799 502.617 179.744 516.084 178.964 516.084C178.506 516.084 178.132 516.424 178.132 516.84C178.132 517.255 177.164 518.036 175.982 518.575C174.799 519.114 168.113 523.13 161.122 527.499C154.132 531.869 146.084 536.896 143.237 538.67C140.39 540.445 138.06 542.37 138.06 542.948C138.06 543.526 140.014 546.639 142.403 549.866L146.746 555.734L149.607 553.706C151.18 552.591 153.076 551.19 153.818 550.592ZM658.213 547.512C659.383 545.978 661.249 543.593 662.359 542.213C663.918 540.276 664.123 539.502 663.259 538.816C661.824 537.677 647.242 528.691 646.828 528.691C646.656 528.691 643.532 526.766 639.885 524.413C632.682 519.765 632.838 519.863 622.97 513.838C616.643 509.975 589.238 492.874 576.145 484.619C563.393 476.578 551.359 469.261 550.932 469.287C550.684 469.303 549.769 470.295 548.898 471.492L547.315 473.669L556.429 480.244C561.442 483.86 567.867 488.439 570.708 490.42C573.548 492.401 578.264 495.744 581.187 497.849C593.2 506.499 604.878 514.802 610.814 518.913C616.998 523.196 641.669 540.799 650.324 547.103C652.739 548.863 655.023 550.302 655.4 550.302C655.777 550.302 657.043 549.047 658.213 547.512ZM389.856 541.297C394.926 533.879 394.572 534.093 401.764 534.093H408.308L411.111 540.402C413.578 545.953 414.166 546.664 416.012 546.322C417.166 546.108 419.54 545.903 421.287 545.867C424.433 545.8 424.486 545.733 426.572 539.151C427.732 535.494 428.955 532.058 429.29 531.516C430.071 530.252 445.575 528.995 445.575 530.195C445.575 531.83 451.36 538.596 452.747 538.582C453.507 538.575 455.751 538.012 457.732 537.331C461.376 536.079 463.543 533.377 463.577 530.041C463.587 529.051 463.996 526.795 464.487 525.028C465.317 522.042 465.712 521.756 470.11 520.952C474.427 520.163 475.303 520.312 480.127 522.655L485.412 525.224L489.867 522.455C492.316 520.932 494.716 519.686 495.198 519.686C495.72 519.686 495.969 516.548 495.814 511.945L495.552 504.205L499.926 501.894L504.3 499.583L510.629 501.621L516.959 503.66L521.444 499.175L525.929 494.69L524.023 489.595C521.253 482.191 521.483 481.068 526.844 475.859L531.571 471.264L537.261 472.244C543.508 473.32 544.713 472.945 547.648 469.014L549.408 466.656L546.951 459.92C544.857 454.178 544.659 452.873 545.614 451.09C546.23 449.939 546.623 448.879 546.488 448.734C546.353 448.589 546.723 447.311 547.31 445.895C548.321 443.453 548.753 443.286 555.597 442.68L562.817 442.041L564.509 438.315C565.439 436.267 566.209 433.976 566.22 433.226C566.231 432.476 564.226 429.374 561.765 426.332L557.29 420.801L559.289 414.674L561.287 408.547L567.364 407.567C570.707 407.028 573.843 406.185 574.334 405.694C574.826 405.203 575.467 402.994 575.759 400.786L576.29 396.77L571.907 394.349C569.496 393.018 566.404 390.891 565.036 389.623C562.795 387.546 562.575 386.807 562.818 382.178C563.118 376.471 563.077 376.508 574.119 371.94L578.847 369.984V365.152V360.32L571.701 356.727L564.555 353.135L563.979 348.838C563.125 342.457 562.959 342.176 560.419 342.813C559.177 343.125 557.138 343.439 555.888 343.511C554.291 343.602 553.765 344.033 554.119 344.958C555.772 349.271 556.462 376.324 555.205 387.5C553.443 403.157 548.497 419.881 541.192 434.877C535.844 445.856 533.919 449.04 527.212 458.003C512.46 477.714 493.104 493.655 470.338 504.841C435.909 521.757 398.182 525.402 360.17 515.485C328.612 507.251 299.317 488.262 278.376 462.466C265.303 446.361 253.126 420.859 249.371 401.722C248.837 398.998 247.988 394.622 247.484 391.998C246.98 389.373 246.568 379.952 246.568 371.062C246.568 354.995 247.711 344.68 250.674 333.995C251.401 331.376 252.169 328.523 252.382 327.654C252.595 326.786 253.018 325.673 253.322 325.181C253.626 324.69 254.03 323.577 254.22 322.708C255.286 317.845 264.556 298.275 268.531 292.499C271.502 288.18 271.476 287.593 268.139 283.544C266.273 281.28 264.998 278.309 264.147 274.244C262.777 267.694 262.294 266.772 260.944 268.123C260.34 268.726 260.544 270.382 261.556 273.113C262.939 276.845 262.95 277.507 261.676 280.705L260.282 284.209L250.632 284.66L240.983 285.11L238.92 288.787L236.858 292.464L241.736 298.227C247.033 304.485 247.083 304.759 244.531 313.475C243.578 316.732 242.91 317.572 241.13 317.755C239.911 317.88 236.062 318.429 232.576 318.975L226.238 319.968L225.154 324.533C224.558 327.043 224.168 329.142 224.288 329.197C224.408 329.251 226.471 330.862 228.873 332.775C236.162 338.582 236.663 339.368 236.663 344.993V350.057L228.061 355.689L219.46 361.32L219.732 365.403L220.004 369.486L226.983 373.081L233.962 376.675V382.785V388.896L227.985 394.432L222.009 399.969L222.808 403.684C223.592 407.333 223.703 407.422 229.009 408.645C240.469 411.288 239.571 410.719 240.837 416.145C242.395 422.822 242.445 422.529 239.139 426.08C231.275 434.526 231.71 433.6 233.457 438.176C235.365 443.171 236.864 444.042 243.583 444.057C251.685 444.076 252.442 444.497 255.003 450.402L257.297 455.692L254.634 462.149C251.673 469.329 251.484 470.793 253.224 473.085C254.633 474.941 256.81 475.184 264.128 474.305L269.531 473.655L273.934 478.144C277.946 482.234 278.281 482.899 277.707 485.626C277.361 487.272 276.707 490.814 276.254 493.496L275.429 498.373L278.783 501.286C281.209 503.392 282.449 503.944 283.263 503.277C283.882 502.771 284.389 502.658 284.389 503.027C284.389 503.396 284.895 503.303 285.514 502.82C286.133 502.338 288.743 501.203 291.315 500.3L295.99 498.657L299.869 501.292C307.445 506.438 307.816 506.998 306.789 511.751C305.175 519.228 305.858 521.253 310.988 524.207L315.527 526.819L319.463 523.327C326.179 517.369 326.482 517.314 333.549 520.788L339.768 523.845L340.06 530.537C340.221 534.218 340.493 537.37 340.666 537.542C340.838 537.714 342.703 538.243 344.809 538.716L348.64 539.577L353.773 534.497L358.906 529.417L364.633 530.689L370.36 531.961L373.068 538.84C375.535 545.105 376.017 545.743 378.483 545.997C385.71 546.742 386.302 546.498 389.856 541.297ZM423.86 516.901C438.848 514.426 453.509 510.089 465.298 504.644C471.309 501.869 485.177 494.252 487.448 492.48C487.943 492.093 490.982 489.858 494.201 487.512C504.155 480.26 521.079 462.617 528.122 452.149C539.056 435.901 548.062 414.722 550.906 398.571C551.517 395.104 552.38 390.323 552.825 387.946C553.976 381.792 553.695 357.41 552.386 349.945C551.345 344.002 551.065 343.497 547.472 341.084C545.377 339.677 543.006 337.523 542.203 336.298C540.23 333.287 540.441 326.773 542.631 323.061L544.397 320.067L542.271 314.745C539.506 307.828 535.741 300.747 530.441 292.501C524.937 283.938 517.48 274.092 516.038 273.484C515.152 273.111 514.912 278.822 514.912 300.334C514.912 315.362 515.169 328.942 515.483 330.511C516.188 334.039 519.543 335.945 526.27 336.639C530.626 337.088 531.121 337.356 531.121 339.265V341.39H499.604H468.087V339.139C468.087 337.139 468.464 336.887 471.464 336.883C476.65 336.875 481.468 335.217 482.972 332.922C484.134 331.148 484.33 324.97 484.324 290.418C484.319 268.183 484.311 249.296 484.306 248.448C484.288 245.644 478.109 242.337 472.891 242.337C468.454 242.337 468.192 242.206 467.922 239.868C467.7 237.944 466.744 236.977 463.585 235.483C456.636 232.195 443.111 227.916 432.518 225.653C418.269 222.609 395.613 221.582 383.515 223.433C360.832 226.903 350.026 230.019 334.662 237.523C325.705 241.897 325.614 242.203 331.226 248.994C334.054 252.417 334.795 254.137 335.251 258.344C336.228 267.339 336.201 267.295 342.39 270.28C347.888 272.932 348.229 273.29 350.148 278.421C351.252 281.372 353.723 285.977 355.639 288.652C357.555 291.328 361.048 297.299 363.402 301.92L367.682 310.323L367.939 306.721C368.081 304.74 368.371 302.615 368.585 301.999C369.291 299.962 373.395 302.708 376.869 307.543C380.415 312.48 380.559 313.294 382.416 338.909C383.114 348.541 383.137 348.613 387.435 354.903C390.705 359.689 391.642 361.796 391.299 363.59C390.933 365.506 391.583 366.654 394.706 369.605C398.269 372.971 398.469 373.399 397.313 375.163C396.187 376.882 396.344 377.524 398.871 381.52C400.416 383.964 402.845 387.295 404.268 388.922C406.715 391.721 406.854 392.326 406.854 400.184C406.854 406.882 407.351 410.003 409.422 416.324C412.021 424.256 419.514 436.819 424.29 441.253C426.818 443.6 426.833 443.586 428.254 437.742C428.856 435.265 429.522 434.531 431.362 434.313C433.236 434.091 434.976 435.309 440.09 440.424C443.604 443.937 447.494 448.817 448.736 451.268C449.978 453.719 453.524 458.62 456.614 462.16C465.226 472.022 468.686 476.659 469.622 479.599C470.41 482.07 470.148 482.611 466.356 486.358C464.089 488.598 461.089 492.759 459.689 495.603L457.145 500.776H452.671C447.78 500.776 449.312 501.982 434.719 486.631C432.463 484.258 424.178 477.656 416.308 471.96C408.438 466.265 398.938 458.532 395.197 454.777C390.145 449.706 387.219 447.532 383.828 446.328C380.706 445.219 377.277 442.821 372.985 438.748C365.122 431.284 355.975 423.374 352.15 420.731C350.54 419.619 349.223 418.211 349.223 417.603C349.223 416.995 347.393 413.528 345.155 409.899C341.397 403.803 341.13 402.976 341.651 399.042C342.04 396.112 341.809 394.007 340.91 392.291C339.689 389.96 339.8 389.406 342.609 383.828C345.954 377.189 346.681 369.517 344.396 364.983C343.722 363.646 342.904 360.187 342.578 357.296C341.838 350.73 340.748 348.623 334.434 341.546C331.654 338.431 328.125 333.309 326.591 330.163C324.525 325.926 322.254 323.114 317.828 319.314C304.252 307.661 298.904 301.924 298.316 298.387C297.144 291.334 295.6 290.82 292.92 296.591C290.54 301.714 288.321 301.935 282.126 297.669C279.459 295.832 276.379 293.373 275.282 292.205L273.286 290.081L271.339 292.998C263.077 305.377 254.979 324.951 251.878 340.039C247.447 361.593 247.441 379.016 251.854 401.305C254.2 413.151 262.056 432.478 269.777 445.396C277.625 458.526 293.159 476.235 303.749 484.124C305.73 485.6 307.554 487.058 307.801 487.364C308.929 488.758 322.5 497.337 329.413 501.026C342.418 507.967 359.947 513.78 376.06 516.497C384.714 517.956 415.878 518.219 423.86 516.901ZM458.378 492.671C460.323 489.452 463.177 485.504 464.72 483.898C467.481 481.026 467.503 480.931 466.096 478.045C465.309 476.432 461.389 471.566 457.384 467.233C453.38 462.9 448.924 457.024 447.482 454.176C445.047 449.367 432.434 435.275 431.448 436.261C431.212 436.496 430.52 438.647 429.909 441.041C427.904 448.902 424.197 447.114 415.532 434.105C412.385 429.381 409.291 423.911 408.656 421.949C408.021 419.987 406.692 416.233 405.703 413.606C404.231 409.697 403.991 407.444 404.382 401.187L404.859 393.543L400.588 388.403C395.129 381.833 394.065 379.753 394.358 376.224C394.541 374.014 393.936 372.702 391.72 370.5C389.677 368.47 388.845 366.806 388.845 364.753C388.845 361.944 386.401 357.036 383.345 353.709C381.379 351.568 380.928 349.058 379.789 333.93C378.534 317.244 377.62 312.827 374.543 308.562C370.562 303.044 369.621 303.292 370.36 309.664C370.746 312.989 370.642 315.289 370.09 315.63C368.785 316.437 364.374 310.37 361.078 303.234C359.506 299.83 356.791 295.099 355.044 292.72C353.298 290.341 350.451 285.325 348.718 281.573C345.735 275.118 345.279 274.607 340.225 272.056C337.287 270.573 334.466 268.579 333.955 267.625C333.444 266.671 332.972 263.471 332.905 260.514C332.802 255.952 332.384 254.678 330.146 252.114C326.087 247.46 324.886 244.598 324.283 238.144C323.838 233.384 323.167 231.461 320.91 228.489C319.361 226.448 317.182 222.829 316.069 220.447C314.107 216.248 302.731 204.204 292.992 196.015C288.253 192.03 286.19 187.993 286.19 182.709C286.19 180.54 285.459 178.105 284.335 176.526C283.315 175.094 281.072 170.874 279.351 167.148C276.686 161.381 275.343 159.684 270.322 155.738C259.923 147.566 254.579 138.466 247.626 117.095C244.455 107.348 243.893 104.386 243.446 95.068C243.162 89.1467 242.476 79.57 241.92 73.7863L240.91 63.2706L243.739 58.9991C245.295 56.6498 246.568 53.926 246.568 52.9462C246.568 51.2522 241.87 37.4266 240.167 34.1124C239.726 33.2524 239.364 30.3456 239.364 27.6529C239.364 23.6961 239.813 22.2243 241.702 19.9786C242.988 18.4505 244.253 15.615 244.513 13.6777L244.985 10.1552L241.049 9.68788C238.884 9.43083 230.63 8.77643 222.705 8.23366C214.781 7.69088 203.84 6.875 198.392 6.42059C192.944 5.96618 182.409 5.15452 174.98 4.61689C167.551 4.07926 159.548 3.47149 157.195 3.26629L152.918 2.89319L152.899 8.47878L152.879 14.0644L158.527 19.2375L164.174 24.4107L161.758 28.7173L159.343 33.0239L164.685 41.3267C167.623 45.8932 170.027 49.8013 170.027 50.0112C170.027 50.2212 171.839 53.0951 174.054 56.3977C176.268 59.7003 178.342 63.8855 178.662 65.6981C179.58 70.9066 184.084 79.6582 188.301 84.4287C191.308 87.8302 192.216 89.6065 192.379 92.4064C192.952 102.262 193.38 103.512 199.323 112.667C203.671 119.365 205.555 126.104 204.922 132.694C204.499 137.097 204.647 137.467 208.956 142.751C211.416 145.768 215.562 150.87 218.169 154.09C223.532 160.712 228.908 165.779 241.548 176.122C252.343 184.957 256.028 188.974 258.804 194.936C261.551 200.836 261.691 208.485 259.175 215.107C256.785 221.393 256.901 224.217 259.839 231.378C263.032 239.159 263.153 245.815 260.158 249.003C258.896 250.346 257.503 251.009 256.603 250.694C254.179 249.847 250.162 245.748 247.753 241.662C246.247 239.107 244.852 237.814 243.556 237.774C242.489 237.74 238.374 237.526 234.412 237.297L227.208 236.881L233.689 243.436C239.022 248.829 245.69 258.011 256.196 274.429C257.116 275.868 257.276 275.525 257.321 272.008C257.379 267.512 258.535 265.749 261.426 265.749C264.258 265.749 265.346 267.34 266.49 273.154C267.839 280.007 273.617 287.815 282.129 294.283C285.591 296.915 288.633 299.067 288.888 299.067C289.143 299.067 289.915 297.75 290.603 296.141C294.255 287.6 299.725 288.195 300.872 297.257C301.217 299.983 302.063 301.845 303.467 302.97C304.613 303.889 308.792 307.591 312.754 311.196C316.716 314.802 321.219 318.804 322.76 320.091C324.301 321.378 327.101 325.379 328.983 328.984C330.864 332.588 334.533 337.853 337.135 340.684C342.148 346.136 345.621 353.57 345.621 358.845C345.621 360.484 346.281 363.146 347.086 364.761C349.175 368.947 348.381 378.277 345.436 384.163C343.37 388.29 343.232 389.304 343.774 396.32C344.303 403.164 344.717 404.495 347.695 408.906C349.526 411.618 351.024 414.529 351.024 415.373C351.024 416.217 352.341 417.821 353.951 418.936C357.983 421.731 373.204 434.92 377.589 439.419C379.57 441.451 381.887 443.121 382.739 443.129C385.615 443.158 391.062 446.863 397.849 453.409C401.564 456.991 406.966 461.719 409.854 463.915C417.925 470.053 424.807 475.139 430.466 479.148C433.3 481.155 437.958 485.693 440.817 489.232C446.332 496.059 450.339 499.159 453.135 498.765C454.14 498.623 456.297 496.117 458.378 492.671ZM124.553 493.098C129.369 490.848 135.797 487.966 138.836 486.693C141.876 485.42 146.795 483.239 149.766 481.846C160.505 476.811 180.986 467.458 181.273 467.458C181.435 467.458 185.353 465.693 189.98 463.537C197.079 460.228 208.401 455.089 229.293 445.694C231.43 444.733 233.024 443.665 232.836 443.321C232.648 442.976 231.974 441.377 231.338 439.768C230.703 438.158 229.819 436.841 229.375 436.841C228.93 436.841 222.79 439.11 215.73 441.882C208.671 444.654 196.614 449.365 188.937 452.351C181.261 455.337 173.764 458.286 172.278 458.905C170.793 459.524 165.12 461.722 159.672 463.789C154.224 465.857 148.956 467.917 147.965 468.367C146.975 468.817 140.694 471.252 134.008 473.778C127.322 476.304 120.23 479.101 118.249 479.994C116.268 480.887 113.027 482.128 111.046 482.751C109.064 483.374 107.138 484.161 106.764 484.499C106.391 484.838 107.046 487.119 108.22 489.568C109.395 492.018 110.65 494.968 111.01 496.124C111.835 498.771 112.943 498.523 124.553 493.098ZM691.403 490.645C692.017 489.035 693.034 486.503 693.664 485.017C694.293 483.531 695.067 481.457 695.382 480.408C696.018 478.291 696.22 478.4 683.753 474.165C673.72 470.758 649.093 462.13 635.127 457.131C628.688 454.826 621.192 452.188 618.468 451.27C612.627 449.3 579.244 437.629 573.556 435.568C571.388 434.782 569.469 434.14 569.29 434.14C568.808 434.14 566.239 440.501 566.246 441.679C566.249 442.237 569.795 444.062 574.125 445.734C578.455 447.406 583.619 449.502 585.6 450.392C592.296 453.4 601.773 457.392 609.013 460.253C612.975 461.819 617.534 463.676 619.143 464.379C625.674 467.231 628.274 468.32 636.027 471.451C640.485 473.251 644.942 475.093 645.933 475.544C650.873 477.794 656.519 480.174 663.042 482.758C667.004 484.328 671.461 486.14 672.947 486.786C674.433 487.431 677.472 488.74 679.701 489.695C681.929 490.649 684.766 491.885 686.004 492.44C689.512 494.013 690.208 493.782 691.403 490.645ZM104.699 431.86C111.114 430.572 116.593 429.376 116.875 429.202C117.157 429.028 119.193 428.616 121.401 428.287C123.609 427.957 125.722 427.498 126.097 427.267C126.471 427.035 128.911 426.462 131.518 425.993C134.126 425.524 138.083 424.732 140.311 424.235C142.54 423.737 146.39 422.938 148.866 422.459C151.342 421.981 157.218 420.749 161.923 419.722C166.628 418.695 174.53 417.018 179.482 415.995C184.435 414.972 190.108 413.771 192.089 413.326C195.905 412.469 198.78 411.886 212.125 409.261L220.454 407.622V404.725C220.454 403.132 220.094 401.606 219.655 401.335C218.922 400.882 213.793 401.433 199.293 403.523C196.321 403.952 190.648 404.762 186.686 405.324C182.724 405.887 176.848 406.726 173.629 407.189C170.41 407.652 164.737 408.425 161.022 408.907C157.308 409.388 147.583 410.792 139.411 412.026C131.239 413.261 120.298 414.883 115.098 415.63C109.897 416.378 103.165 417.404 100.136 417.911C97.1072 418.417 93.4603 418.838 92.0316 418.845C87.7031 418.868 87.3004 419.589 88.2667 425.585C89.8014 435.109 89.826 435.179 91.49 434.673C92.3402 434.414 98.2845 433.149 104.699 431.86ZM710.945 424.623C711.583 420.2 712.286 416.104 712.508 415.521C713.202 413.7 710.99 412.792 704.464 412.22C700.997 411.916 694.716 411.274 690.507 410.794C686.297 410.314 679.003 409.484 674.298 408.95C669.593 408.416 662.299 407.581 658.089 407.096C653.879 406.61 646.585 405.8 641.88 405.296C637.175 404.792 629.679 403.975 625.222 403.48C615.572 402.409 605.088 401.277 592.804 399.978C587.851 399.454 582.739 398.802 581.444 398.528C579.292 398.073 579.004 398.364 578.107 401.897C577.567 404.024 577.411 406.026 577.761 406.345C578.11 406.664 588.122 408.814 600.008 411.121C611.894 413.429 623.24 415.7 625.222 416.167C627.203 416.634 639.156 419.082 651.786 421.607C664.415 424.131 675.356 426.323 676.099 426.477C686.175 428.572 691.501 429.639 694.108 430.084C695.842 430.38 698.678 431.003 700.412 431.469C704.147 432.473 707.73 433.043 708.926 432.823C709.4 432.737 710.308 429.046 710.945 424.623ZM684.507 369.61L713.019 369.014V359.254V349.494H709.364C707.354 349.494 701.985 349.885 697.433 350.362C692.88 350.839 683.888 351.664 677.45 352.195C671.011 352.725 661.083 353.555 655.388 354.039C649.692 354.523 640.17 355.328 634.226 355.828C609.662 357.894 603.089 358.473 592.579 359.496L581.548 360.57V365.388V370.206H618.771C639.244 370.206 668.825 369.937 684.507 369.61ZM216.852 364.352C216.852 360.89 217.564 361.142 206.497 360.689C204.516 360.608 198.032 360.087 192.089 359.532C186.146 358.978 175.813 358.101 169.127 357.585C162.441 357.069 152.513 356.268 147.065 355.804C141.617 355.34 131.284 354.518 124.103 353.976C116.921 353.434 107.33 352.609 102.788 352.143C98.2459 351.677 92.6742 351.295 90.4061 351.295H86.2822V359.4V367.504H151.567H216.852V364.352ZM563.27 338.725C574.765 331.716 565.917 315.328 552.577 318.92C542.452 321.646 539.803 331.767 547.516 338.257C550.969 341.162 558.886 341.398 563.27 338.725ZM712.224 336.994C715.088 334.129 715.72 332.864 715.72 329.99C715.72 316.57 694.283 314.021 690.401 326.979C689.526 329.898 689.6 331.003 690.84 333.617C693.238 338.67 696.36 340.428 702.994 340.461C708.47 340.488 708.886 340.332 712.224 336.994ZM517.012 338.649L520.765 338.609L517.422 336.844C514.838 335.479 513.857 334.254 513.102 331.45C512.448 329.022 512.214 314.487 512.393 287.514C512.695 242.056 512.425 243.797 519.702 240.509L523.467 238.809L500.104 238.892L476.742 238.975L481.005 241.142C483.558 242.439 485.615 244.22 486.133 245.583C487.295 248.64 487.282 329.717 486.119 332.776C485.636 334.047 483.925 335.886 482.315 336.865L479.39 338.644L495.125 338.905C503.779 339.048 511.4 339.058 512.059 338.927C512.719 338.796 514.948 338.671 517.012 338.649ZM655.838 338.075C652.085 337.309 649.759 334.569 649.015 330.037C648.617 327.614 648.267 307.093 648.238 284.434L648.184 243.237H657.505C662.631 243.237 668.203 243.696 669.886 244.256C675.803 246.225 682.891 254.611 684.588 261.65C685.826 266.788 686.661 262.097 686.557 250.586L686.454 239.185L635.802 238.953L585.15 238.72V251.514C585.15 264.39 585.582 265.619 587.777 258.996C589.643 253.367 594.125 248.005 599.059 245.5C603.003 243.496 604.632 243.237 613.281 243.237H623.049L622.785 288.168C622.532 330.997 622.439 333.188 620.792 335.007C619.842 336.056 617.816 337.277 616.29 337.721C614.482 338.246 621.199 338.512 635.577 338.485C647.711 338.462 656.828 338.278 655.838 338.075ZM572.92 332.739C573.703 332.438 574.344 331.486 574.344 330.622C574.344 327.701 572.375 323.38 571.044 323.38C570.058 323.38 569.904 323.898 570.441 325.406C570.837 326.521 571.138 328.75 571.109 330.359C571.081 331.969 571.156 333.286 571.276 333.286C571.397 333.286 572.136 333.04 572.92 332.739ZM617.793 321.201L621.169 320.597V314.335C621.169 310.89 621.068 308.073 620.944 308.073C619.64 308.081 576.226 323 575.553 323.672C575.315 323.91 575.602 325.714 576.191 327.681L577.262 331.256L595.839 326.53C606.056 323.931 615.935 321.533 617.793 321.201ZM222.53 324.506C222.805 323.144 223.283 321.374 223.593 320.573C224.035 319.432 223.241 318.887 219.916 318.049C217.583 317.462 211.988 315.83 207.484 314.422C198.688 311.675 184.276 307.341 174.079 304.378C170.613 303.371 166.763 302.216 165.525 301.812C164.287 301.408 161.45 300.578 159.221 299.968C156.993 299.358 154.156 298.518 152.918 298.102C151.68 297.687 146.209 296.095 140.761 294.565C135.314 293.035 129.843 291.441 128.605 291.022C121.592 288.65 98.9713 281.958 97.9652 281.958C97.5615 281.958 96.9569 283.275 96.6217 284.885C96.2865 286.494 95.2411 290.209 94.2986 293.139C93.3561 296.069 92.6955 298.577 92.8307 298.712C92.9659 298.847 94.0804 299.149 95.3074 299.384C96.5344 299.618 104.832 301.454 113.747 303.464C131.608 307.491 142.67 309.936 155.619 312.719C160.324 313.73 167.416 315.273 171.378 316.148C175.34 317.024 181.013 318.229 183.985 318.826C186.956 319.424 190.806 320.277 192.539 320.723C194.273 321.169 199.946 322.4 205.146 323.46C210.346 324.519 215.614 325.713 216.852 326.113C220.883 327.415 222.007 327.097 222.53 324.506ZM552.218 316.579C555.734 315.92 555.933 315.432 554.406 311.211C553.444 308.549 553.664 307.943 557.873 301.692L562.368 295.015L560.343 291.413L558.319 287.811L549.898 286.558L541.477 285.305L537.506 279.399L533.535 273.493L536.949 266.861L540.363 260.229L537.636 256.461C535.214 253.114 534.396 252.628 530.319 252.116C523.318 251.237 521.739 250.682 518.993 248.138C515.484 244.886 514.943 246.182 514.926 257.873L514.912 267.556L521.058 275.075C531.212 287.496 541.818 305.02 545.397 315.286C546.074 317.226 546.834 318.015 547.704 317.681C548.418 317.407 550.45 316.911 552.218 316.579ZM662.251 310.297C667.143 309.044 674.591 307.218 678.8 306.24C694.337 302.629 706.262 299.253 706.153 298.496C705.99 297.369 701.143 281.559 700.863 281.24C700.634 280.981 695.226 282.766 664.843 293.133L650.435 298.049L650.165 305.312C649.845 313.931 649.161 313.649 662.251 310.297ZM580.197 285.111C585.645 282.252 590.508 279.622 591.003 279.269C591.498 278.915 596.158 276.367 601.359 273.606C606.559 270.846 613.042 267.392 615.766 265.93L620.719 263.273L620.985 257.308C621.132 254.026 620.905 251.342 620.482 251.342C620.059 251.342 617.357 252.76 614.479 254.493C611.6 256.227 609.063 257.645 608.841 257.645C608.619 257.645 606.736 258.759 604.658 260.121C598.997 263.831 563.851 284.783 560.999 286.148C560.841 286.224 561.569 287.967 562.617 290.022L564.524 293.759L567.408 292.035C568.994 291.087 574.749 287.971 580.197 285.111ZM236.675 287.332C237.297 285.83 237.65 284.465 237.46 284.298C236.839 283.753 224.781 276.555 224.489 276.555C224.333 276.555 218.195 272.977 210.849 268.603C203.502 264.229 195.668 259.627 193.44 258.375C191.211 257.124 182.149 251.787 173.303 246.517C164.456 241.246 157.018 236.934 156.774 236.934C156.53 236.934 154.53 235.718 152.328 234.233C150.127 232.747 148.161 231.531 147.961 231.531C147.761 231.531 142.9 228.695 137.16 225.228C131.419 221.761 126.579 218.924 126.404 218.924C126.229 218.924 124.783 221.457 123.191 224.552C121.598 227.648 119.526 231.453 118.584 233.009L116.873 235.837L123.629 239.087C127.344 240.874 130.55 242.337 130.753 242.337C130.956 242.337 135.884 244.583 141.705 247.329C147.526 250.074 154.152 253.163 156.43 254.193C158.708 255.223 164.332 257.839 168.927 260.007C173.522 262.175 177.452 263.948 177.661 263.948C177.87 263.948 183.147 266.38 189.388 269.351C195.628 272.323 200.902 274.754 201.107 274.754C201.312 274.754 206.25 277.013 212.082 279.774C217.913 282.535 224.715 285.641 227.197 286.675C229.679 287.71 232.095 288.895 232.566 289.309C234.172 290.724 235.543 290.064 236.675 287.332ZM575.695 231.985C581.638 227.488 595.821 216.752 607.212 208.127C618.603 199.502 631.662 189.633 636.233 186.196L644.542 179.946L641.717 176.698C640.163 174.912 637.353 171.852 635.473 169.898L632.055 166.347L627.288 170.336C624.665 172.53 620.494 176.207 618.018 178.506C613.547 182.657 603.094 191.926 593.372 200.36C587.816 205.179 577.306 214.558 568.027 222.977C560.43 229.87 543.268 245 539.443 248.177L536.509 250.614L539.263 254.09L542.016 257.567L553.453 248.865C559.743 244.078 569.752 236.483 575.695 231.985ZM258.815 246.693C259.184 246.096 258.531 244.895 257.292 243.894C255.011 242.051 245.747 233.906 238.061 226.984C235.559 224.731 232.093 221.749 230.36 220.356C228.626 218.964 225.587 216.339 223.606 214.523C221.625 212.706 217.049 208.693 213.436 205.603C209.824 202.514 205.569 198.834 203.981 197.426C202.393 196.018 197.244 191.539 192.539 187.472C187.834 183.405 181.26 177.64 177.93 174.661C171.351 168.774 167.713 165.796 167.102 165.796C166.888 165.796 164.015 169.019 160.718 172.958L154.723 180.12L158.998 183.029C161.35 184.629 163.476 186.167 163.724 186.447C164.605 187.445 173.231 194.284 176.331 196.443C178.064 197.65 180.293 199.315 181.283 200.142C183.529 202.017 191.58 208.331 202.939 217.123C207.738 220.838 214.644 226.207 218.287 229.055C223.676 233.268 225.543 234.234 228.31 234.238C230.18 234.241 235.047 234.503 239.125 234.821L246.54 235.398L251.043 241.569C255.393 247.531 257.457 248.891 258.815 246.693ZM652.686 245.939C653.85 245.187 653.827 245.064 652.514 245.052C651.677 245.045 650.741 245.444 650.435 245.939C649.731 247.078 650.923 247.078 652.686 245.939ZM475.948 239.091C475.648 238.792 474.872 238.76 474.222 239.02C473.503 239.308 473.717 239.521 474.766 239.564C475.715 239.603 476.247 239.391 475.948 239.091ZM332.313 235.675C341.705 231.409 351.794 227.459 355.527 226.587C356.27 226.413 359.245 225.644 362.138 224.877C380.391 220.038 408.305 218.88 427.115 222.182C442.819 224.938 454.326 228.458 466.865 234.339L472.397 236.934H494.105C511.676 236.934 515.813 236.703 515.813 235.724C515.813 234.076 508.822 228.31 498.262 221.25L489.476 215.375L486.215 218.063C484.421 219.542 482.817 220.34 482.649 219.838C482.482 219.335 481.421 218.924 480.291 218.924C478.915 218.924 477.423 217.749 475.769 215.362C473.85 212.594 472.269 211.487 468.668 210.394L464.035 208.988L457.854 215.532C453.627 220.008 451.822 221.436 452.142 220.05C452.587 218.125 452.346 218.024 447.294 218.024C442.455 218.024 441.677 217.741 438.636 214.872C435.808 212.205 434.654 211.72 431.124 211.72C427.351 211.72 426.729 212.035 424.611 215.011L422.27 218.301L414.337 218.237C406.977 218.177 406.307 218.017 405.053 216.015C404.31 214.828 402.487 212.422 401.001 210.668C398.623 207.862 397.823 207.491 394.314 207.574C390.151 207.672 389.838 207.971 382.448 218.924C381.761 219.941 381.419 219.997 381.063 219.149C380.776 218.466 378.852 218.024 376.163 218.024C373.242 218.024 371.722 218.407 371.696 219.149C371.675 219.769 369.713 218.105 367.337 215.453C363.5 211.172 362.529 210.576 358.67 210.141C354.438 209.664 354.234 209.754 350.874 213.58C348.975 215.741 347.422 217.752 347.422 218.049C347.422 218.346 344.946 218.41 341.919 218.191C337.885 217.899 336.201 218.124 335.611 219.034C334.993 219.988 333.893 219.234 330.855 215.773C327.093 211.488 326.678 211.268 322.28 211.226C316.398 211.17 313.955 213.193 316.799 215.766C317.793 216.666 318.607 218.103 318.607 218.959C318.607 219.815 320.43 223.179 322.659 226.434C325.278 230.259 326.711 233.321 326.711 235.093C326.711 236.601 326.902 237.834 327.135 237.834C327.368 237.834 329.698 236.863 332.313 235.675ZM674.329 234.217L679.711 231.5L677.025 226.178C675.547 223.251 673.95 220.617 673.477 220.324C673.003 220.031 668.927 222.028 664.42 224.761C659.913 227.494 656.05 229.73 655.837 229.73C655.623 229.73 652.941 231.351 649.876 233.332L644.303 236.934H656.624C668.541 236.934 669.123 236.845 674.329 234.217ZM524.403 222.388L528.564 217.092L525.241 215.703C522.02 214.358 521.808 214.39 518.375 216.769C516.427 218.119 514.625 219.562 514.37 219.975C513.519 221.351 512.01 220.747 512.581 219.259C513.044 218.051 512.688 217.883 510.557 218.31C508.302 218.761 507.6 218.333 505.087 214.979C502.241 211.181 502.143 211.136 497.527 211.515C494.955 211.727 492.499 212.231 492.07 212.636C491.64 213.041 494.68 215.62 498.823 218.369C502.967 221.117 508.586 225.17 511.31 227.375L516.263 231.383L518.253 229.533C519.347 228.516 522.115 225.3 524.403 222.388ZM486.177 211.946C487.367 209.593 490.004 204.629 492.036 200.915C494.068 197.2 499.29 187.272 503.641 178.853C507.992 170.433 511.847 163.139 512.208 162.644C512.569 162.149 516.417 154.855 520.758 146.435C525.099 138.016 528.953 130.722 529.321 130.227C530.279 128.939 540.126 110.072 540.126 109.523C540.126 109.271 537.987 109.065 535.372 109.065H530.618L527.712 115.227C526.114 118.616 522.636 126.213 519.984 132.111C517.332 138.008 513.532 146.278 511.541 150.488C505.316 163.647 500.505 174.066 500.505 174.387C500.505 174.557 498.331 179.278 495.674 184.879C493.017 190.479 489.524 198.101 487.911 201.815C486.299 205.53 484.681 208.974 484.318 209.469C483.954 209.965 483.214 211.687 482.672 213.296C481.101 217.969 483.62 216.998 486.177 211.946ZM344.405 213.747C343.984 212.234 338.406 189.396 334.782 174.35C333.828 170.388 330.802 157.827 328.059 146.435C325.315 135.044 322.168 121.977 321.064 117.398L319.057 109.072L311.706 109.068L304.356 109.065L305.196 111.541C306.104 114.213 316.762 151.858 317.242 154.089C317.59 155.7 324.438 180.176 326.691 187.857C327.563 190.828 329.645 198.224 331.318 204.291L334.361 215.322H339.601C344.159 215.322 344.785 215.117 344.405 213.747ZM380.264 203.391C379.998 196.829 379.393 184.976 378.921 177.052C378.449 169.128 377.814 156.363 377.51 148.687C377.206 141.01 376.775 134.431 376.552 134.066C376.329 133.701 376.106 127.926 376.056 121.234L375.966 109.065H368.846H361.727L362.278 116.494C362.58 120.58 362.988 124.531 363.183 125.274C363.379 126.017 363.764 129.867 364.04 133.829C364.315 137.791 364.745 142.451 364.995 144.184C365.245 145.918 365.862 151.996 366.366 157.691C366.871 163.387 367.677 172.403 368.159 177.727C368.64 183.051 369.422 191.914 369.896 197.422C370.37 202.929 371.023 209.21 371.349 211.379L371.94 215.322H376.344H380.747L380.264 203.391ZM421.368 210.82C421.683 208.591 422.215 203.526 422.551 199.564C422.887 195.602 423.317 191.752 423.506 191.009C423.695 190.266 424.085 187.025 424.374 183.805C424.662 180.586 425.277 174.711 425.739 170.748C426.557 163.737 427.501 154.975 429.426 136.53C429.943 131.577 430.749 124.571 431.217 120.96C431.685 117.349 432.068 113.196 432.068 111.73V109.065H424.936H417.803L417.309 114.693C417.036 117.789 416.377 125.792 415.843 132.478C415.309 139.164 414.494 148.281 414.032 152.739C413.57 157.196 412.971 164.288 412.699 168.497C412.428 172.707 412.03 177.164 411.815 178.403C411.6 179.641 411.191 184.503 410.906 189.208C410.622 193.913 410.231 198.371 410.038 199.114C409.845 199.857 409.438 203.826 409.133 207.935L408.58 215.406L414.688 215.139L420.795 214.872L421.368 210.82ZM458.082 201.59C460.562 194.037 468.241 171.041 475.145 150.488C482.05 129.934 487.974 112.206 488.309 111.091C488.904 109.116 488.75 109.065 482.178 109.065H475.436L474.113 113.343C473.385 115.695 471.925 120.659 470.87 124.374C469.814 128.088 468.578 132.343 468.123 133.829C467.06 137.304 459.909 162.218 459.465 163.995C459.279 164.738 456.864 173.045 454.097 182.455C451.331 191.865 448.291 202.443 447.343 205.962C446.394 209.481 445.363 213.027 445.05 213.841C444.569 215.095 445.179 215.322 449.027 215.322H453.572L458.082 201.59ZM520.479 206.543C523.707 201.714 530.593 191.279 535.782 183.355C548.745 163.555 565.95 137.319 575.904 122.169L584.218 109.516L580.874 109.224C576.781 108.866 576.737 108.915 566.897 125.102C562.821 131.806 558.676 138.602 557.685 140.204C556.695 141.805 553.61 146.901 550.831 151.529C548.052 156.157 542.63 165.008 538.784 171.199C534.937 177.39 531.132 183.537 530.33 184.859C529.527 186.182 526.317 191.449 523.198 196.565C520.079 201.681 517.039 206.676 516.444 207.664C515.849 208.653 514.653 210.539 513.787 211.856C511.896 214.728 511.832 215.322 513.411 215.322C514.07 215.322 517.251 211.372 520.479 206.543ZM257.728 212.097C258.979 208.836 258.229 203.905 256.027 200.92C254.791 199.245 253.455 197.647 253.057 197.368C252.66 197.09 251.367 195.444 250.184 193.711C249.001 191.977 246.995 189.329 245.725 187.826C244.455 186.322 242.201 183.486 240.715 181.522C237.849 177.735 232.497 172.239 225.727 166.131C223.462 164.087 219.221 159.458 216.304 155.843C213.386 152.229 208.865 146.627 206.256 143.395C202.537 138.789 201.553 136.911 201.702 134.703C201.854 132.447 200.737 130.437 196.09 124.601C192.899 120.593 188.87 115.474 187.136 113.224C183.998 109.151 183.961 109.133 178.341 109.099L172.698 109.065L177.441 114.955C180.049 118.194 183.399 122.39 184.885 124.279C186.371 126.168 193.26 134.716 200.193 143.275C207.127 151.833 214.421 160.941 216.402 163.516C219.412 167.427 234.753 186.505 248.578 203.53C250.426 205.806 252.858 208.98 253.981 210.584C256.285 213.873 256.944 214.139 257.728 212.097ZM557.35 202.941C558.47 201.513 558.438 201.481 557.01 202.601C556.143 203.28 555.434 203.99 555.434 204.177C555.434 204.918 556.174 204.441 557.35 202.941ZM545.529 198.663C547.062 196.435 548.114 194.611 547.866 194.611C547.619 194.611 546.162 196.435 544.628 198.663C543.095 200.892 542.043 202.716 542.291 202.716C542.538 202.716 543.995 200.892 545.529 198.663ZM300.561 190.913C298.537 185.27 296.525 179.843 296.092 178.853C295.658 177.862 294.427 174.418 293.355 171.199C292.283 167.979 291.07 164.535 290.659 163.545C290.249 162.554 288.634 158.097 287.071 153.639C285.508 149.182 282.877 141.888 281.225 137.431C279.574 132.973 276.952 125.679 275.399 121.222C270.636 107.546 272.654 109.065 259.256 109.065H247.592L251 119.196C257.229 137.711 263.006 147.017 272.943 154.544C277.912 158.308 279.191 159.851 280.775 163.995C281.817 166.719 284.055 171.047 285.748 173.614C288.139 177.236 288.81 179.161 288.749 182.224C288.648 187.237 290.607 191.011 295.269 194.781C297.297 196.421 300.034 198.64 301.353 199.712C302.671 200.785 303.86 201.552 303.996 201.417C304.131 201.282 302.586 196.555 300.561 190.913ZM598.207 159.97C606.627 151.111 616.757 140.552 620.719 136.506C624.681 132.459 632.136 124.615 637.285 119.073L646.647 108.997L637.77 109.256L628.893 109.516L625.418 114.018C623.506 116.494 620.38 120.547 618.469 123.023C616.559 125.499 612.312 130.97 609.03 135.179C605.748 139.389 601.768 144.496 600.185 146.527C598.602 148.559 594.267 154.183 590.553 159.025C586.838 163.868 582.786 169.137 581.548 170.736C580.31 172.335 576.26 177.652 572.548 182.551C568.836 187.451 565.542 191.662 565.228 191.91C564.914 192.157 563.159 194.386 561.329 196.862C557.684 201.792 573.45 186.021 598.207 159.97ZM554.701 185.769C557.253 181.965 559.601 178.65 559.92 178.403C560.398 178.03 566.758 169.118 572.554 160.698C574.905 157.282 605.202 115.036 607.483 111.992L609.677 109.065L607.544 109.071C606.195 109.074 604.847 109.985 603.877 111.547C603.033 112.906 599.791 117.723 596.673 122.251C593.555 126.78 585.697 138.329 579.212 147.915C569.501 162.27 555.638 182.639 549.131 192.117C548.253 193.395 548.179 193.839 548.92 193.385C549.547 193 552.148 189.574 554.701 185.769ZM220.264 185.832C219.511 184.965 214.367 178.583 208.834 171.649C203.301 164.715 198.119 158.256 197.319 157.294C196.519 156.333 194.002 153.165 191.725 150.255C186.944 144.142 185.24 142.002 170.072 123.064L158.86 109.065H154.938C149.88 109.065 148.343 106.913 172.278 133.343C175.25 136.624 181.936 144.136 187.136 150.037C192.337 155.938 199.023 163.443 201.994 166.714C204.966 169.985 210.363 175.979 213.987 180.035C217.611 184.09 220.814 187.407 221.105 187.407C221.396 187.407 221.018 186.698 220.264 185.832ZM161.616 97.8093C163.702 92.8567 166.289 86.7784 167.364 84.3021C168.439 81.8257 169.918 78.3025 170.651 76.4726C171.76 73.7033 172.478 73.0994 174.933 72.8706L177.883 72.5958L176.629 68.3185C175.49 64.4307 175.127 64.0412 172.643 64.0412C169.784 64.0412 169.574 64.3825 162.4 80.7001C161.747 82.1859 160.405 85.2251 159.419 87.4538C158.433 89.6825 156.73 93.532 155.636 96.0084C154.541 98.4847 153.077 101.687 152.381 103.125C150.564 106.883 150.74 107.21 154.47 107.001L157.822 106.814L161.616 97.8093ZM184.939 105.269C185.294 104.138 186.677 100.95 188.012 98.1842C190.811 92.3847 190.545 90.8018 185.905 85.6661C184.263 83.8485 182.161 81.0776 181.234 79.5084L179.549 76.6554L177.032 86.7821C175.648 92.3518 173.978 99.1836 173.321 101.964L172.126 107.019L178.21 107.172C183.822 107.314 184.344 107.166 184.939 105.269ZM279.91 91.9406C284.602 83.4728 289.049 75.7814 289.791 74.8486C290.927 73.4226 292.918 73.0528 302.293 72.5262L313.445 71.8998L312.99 74.499C312.74 75.9286 310.863 83.5601 308.818 91.4581C306.773 99.356 305.1 106.143 305.1 106.541C305.1 106.939 308.322 107.264 312.262 107.264C318.658 107.264 319.578 107.048 320.875 105.238C325.898 98.225 329.631 92.9543 331.239 90.6055C332.255 89.1197 335.365 84.7636 338.149 80.9253L343.21 73.9465H349.818H356.427V76.6994C356.427 78.2136 356.796 81.1514 357.246 83.2279C358.19 87.5796 359.733 96.7679 360.568 103.021L361.144 107.331L368.769 107.073L376.393 106.814L381.701 95.1079C390.724 75.208 390.819 75.0435 393.685 74.4672C395.109 74.1808 397.781 73.9465 399.623 73.9465H402.972L410.091 90.5901L417.21 107.234L424.999 107.249L432.788 107.264L434.311 100.286C438.101 82.9179 439.503 76.957 440.241 75.072C440.964 73.2257 441.615 73.0483 447.582 73.0722L454.13 73.0984L458.465 80.0509C460.85 83.8748 465.199 90.6504 468.13 95.1078C471.061 99.5652 473.74 103.82 474.084 104.563C475.081 106.717 475.949 106.984 482.555 107.177C489.582 107.382 489.645 107.302 487.577 100.767C486.906 98.6451 485.843 95.0853 485.216 92.8566C484.589 90.6279 483.351 86.3731 482.464 83.4015C481.578 80.4299 480.607 76.8843 480.306 75.5223L479.759 73.0459L492.158 73.0531L504.557 73.0604L509.509 79.4793C512.233 83.0097 515.678 87.4132 517.164 89.2649C518.649 91.1166 522.436 95.924 525.579 99.948L531.293 107.264H536.159C538.836 107.264 541.026 107.07 541.026 106.832C541.026 106.595 540.379 104.67 539.588 102.555C538.797 100.44 537.339 96.4811 536.349 93.7571C535.358 91.0332 534.221 87.9941 533.822 87.0035C530.52 78.7993 529.162 74.7047 529.599 74.2681C529.882 73.9853 533.573 73.5381 537.802 73.2742C543.606 72.9121 545.862 73.1014 547.003 74.0459C547.834 74.7341 551.954 79.2916 556.159 84.1736C560.363 89.0555 564.656 93.9724 565.697 95.1C566.738 96.2275 569.211 99.2069 571.193 101.721C574.779 106.272 574.817 106.292 580.069 106.328C584.742 106.36 585.27 106.185 584.702 104.788C584.35 103.921 583.733 102.199 583.331 100.961C582.929 99.7228 580.75 93.4687 578.488 87.0629C576.226 80.6571 574.529 75.2623 574.717 75.0745C575.168 74.6235 584.413 72.1699 585.714 72.1562C586.271 72.1499 590.72 79.8447 595.6 89.2547C604.373 106.172 604.505 106.364 607.418 106.364C609.038 106.364 610.364 106.144 610.364 105.875C610.364 105.605 608.945 99.0543 607.212 91.3167C605.478 83.5791 604.06 76.371 604.06 75.2989C604.06 73.7264 604.843 73.1703 608.109 72.4229C611.983 71.5364 612.209 71.598 613.344 73.8471C616.513 80.1279 629.623 104.249 630.405 105.238C631.445 106.553 646.713 106.853 646.233 105.549C646.068 105.101 641.475 95.5916 636.027 84.4166L626.122 64.0984L435.048 64.0698C329.957 64.0541 243.764 64.3799 243.508 64.7938C243.252 65.2076 243.356 66.7272 243.74 68.1706C244.329 70.3891 244.949 70.8381 247.753 71.0743C249.578 71.2281 251.071 71.5214 251.071 71.7262C251.071 71.9311 249.818 75.2497 248.286 79.1009C245.55 85.9796 245.512 86.2881 246.129 96.5958L246.757 107.089L259.068 107.213L271.38 107.337L279.91 91.9406ZM442.874 46.932V31.6238H398.3H353.726V46.932V62.2402H398.3H442.874V46.932ZM664.633 673.443C663.602 672.329 659.275 666.96 655.016 661.512C650.758 656.064 645.988 650.028 644.416 648.098L641.558 644.59L643.62 642.921C644.754 642.002 646.217 641.251 646.872 641.251C647.884 641.251 654.967 649.889 668.845 668.049L671.947 672.107L669.871 673.788C667.237 675.921 666.905 675.899 664.633 673.443ZM141.888 670.118C135.102 665.814 133.348 660.647 136.786 655.084L138.664 652.046L141.306 653.607C143.033 654.626 143.765 655.643 143.418 656.539C141.874 660.525 141.984 662.735 143.819 664.57C147.712 668.463 149.791 667.376 161.708 655.217C167.78 649.022 173.079 643.952 173.482 643.952C173.886 643.952 175.136 644.932 176.26 646.128L178.304 648.304L167.658 659.268C161.802 665.298 155.908 670.802 154.559 671.5C150.69 673.5 146.502 673.044 141.888 670.118ZM683.16 647.332C681.01 643.177 676.63 634.633 673.427 628.346L667.603 616.914L670.378 614.139L673.154 611.363L679.354 613.607C685.918 615.982 696.357 619.986 700.862 621.856C702.348 622.473 706.096 623.897 709.192 625.02C712.287 626.144 714.82 627.348 714.82 627.697C714.82 628.045 713.837 629.253 712.637 630.381C710.712 632.189 710.101 632.314 707.459 631.443C705.812 630.899 704.059 630.418 703.564 630.373C703.068 630.328 702.258 629.956 701.763 629.546C700.733 628.693 699.225 629.886 692.503 636.873L687.746 641.818L689.985 645.825C692.312 649.987 692.242 650.522 689.014 653.247C687.073 654.885 687.064 654.876 683.16 647.332ZM693.138 625.88C692.434 625.435 691.527 625.064 691.124 625.056C690.721 625.049 688.29 624.085 685.721 622.915C679.198 619.943 676.999 619.333 676.999 620.493C676.999 621.395 680.931 628.969 683.967 633.916L685.268 636.036L689.843 631.363C693.456 627.674 694.149 626.52 693.138 625.88ZM116.506 644.012L113.963 641.358L116.244 637.467L118.525 633.575L116.582 631.335C115.514 630.102 112.584 627.179 110.07 624.838L105.501 620.582L100.965 622.24C96.1053 624.017 94.2391 623.629 92.5629 620.497C91.448 618.414 89.9158 619.156 111.046 611.549C119.465 608.518 127.285 605.654 128.422 605.184C131.769 603.804 133.525 604.179 136.049 606.814L138.428 609.296L129.415 627.3C124.458 637.202 120.097 645.61 119.725 645.984C119.353 646.359 117.904 645.472 116.506 644.012ZM125.865 619.315C127.924 615.423 129.435 612.064 129.223 611.853C129.011 611.641 127.671 611.938 126.245 612.514C122.457 614.043 120.429 614.819 116.899 616.091C115.165 616.715 113.396 617.533 112.966 617.908C112.536 618.283 114.124 620.663 116.493 623.196C118.863 625.73 121.099 627.485 121.462 627.098C121.825 626.71 123.806 623.208 125.865 619.315ZM77.4619 596.871C74.2218 595.858 65.6912 586.346 59.8966 577.284L58.2742 574.748L67.5507 568.688C72.6528 565.355 80.1488 560.463 84.2087 557.816C88.2685 555.169 91.9155 553.013 92.313 553.024C93.3705 553.053 105.223 569.371 106.648 572.759C107.673 575.198 107.666 576.118 106.603 578.664C104.736 583.131 101.584 584.836 96.1566 584.314L91.6525 583.881L92.1487 586.677C93.3643 593.528 85.1049 599.26 77.4619 596.871ZM82.9646 589.789C87.5883 587.355 87.3737 583.876 82.1309 576.272L77.9796 570.251L73.3512 573.063C70.8056 574.61 68.445 576.283 68.1055 576.78C67.2615 578.018 69.7646 582.058 74.3357 586.838C78.3319 591.017 79.726 591.493 82.9646 589.789ZM99.7307 576.21C100.929 574.105 100.815 573.623 98.1456 569.55C96.5632 567.136 94.5021 564.253 93.5655 563.144L91.8626 561.128L87.2914 564.044C84.7773 565.649 82.7143 567.164 82.707 567.411C82.671 568.632 91.3013 578.467 92.9466 579.08C95.5358 580.044 98.1858 578.923 99.7307 576.21ZM25.2745 527.591C24.1602 527.054 23.2484 526.295 23.2484 525.905C23.2484 524.71 24.8898 524.102 25.4905 525.074C26.1574 526.153 31.9465 526.313 32.5909 525.271C32.8351 524.876 32.6878 523.991 32.2635 523.304C31.7203 522.425 32.1679 521.705 33.7766 520.871C36.9649 519.217 37.4324 519.342 38.9402 522.258C40.1906 524.676 40.1515 524.886 38.288 525.748C31.3553 528.955 28.8412 529.312 25.2745 527.591ZM22.5283 499.245C21.966 497.413 21.5941 495.879 21.7018 495.836C23.6171 495.063 29.5518 490.358 29.5518 489.611C29.5518 487.345 24.9344 474.245 23.9053 473.591C23.2964 473.205 20.8634 472.882 18.4986 472.874C14.7178 472.862 14.093 472.582 13.3208 470.551C11.7152 466.328 12.1334 465.399 15.3692 466.002C18.3037 466.548 34.0174 468 46.661 468.893C56.5533 469.591 57.1683 469.808 58.2773 472.989C59.7642 477.255 59.6145 477.607 54.9904 480.737C52.6379 482.329 47.674 485.867 43.9595 488.599C35.8498 494.564 24.3392 502.576 23.8804 502.576C23.699 502.576 23.0905 501.078 22.5283 499.245ZM40.6212 482.963C43.2002 481.09 46.4598 478.829 47.8647 477.938C49.2697 477.047 50.1492 476.047 49.8193 475.715C48.7848 474.674 31.3492 474.117 31.3511 475.124C31.352 475.627 32.1632 478.255 33.1537 480.965C34.1443 483.675 34.9547 485.999 34.9547 486.13C34.9547 486.837 36.3959 486.031 40.6212 482.963ZM7.58457 444.417C5.91102 440.056 6.79772 438.938 20.0987 428.643C27.2812 423.084 33.0377 418.415 32.891 418.269C32.6485 418.026 28.09 418.476 10.4433 420.483C4.08093 421.206 3.43778 420.89 3.43778 417.038C3.43778 415.238 6.80617 414.519 24.5991 412.519C29.5518 411.962 35.9383 411.108 38.7914 410.62C41.6444 410.132 44.3796 409.98 44.8696 410.283C45.3596 410.586 45.743 412.329 45.7216 414.157C45.6858 417.227 45.1864 417.844 39.1931 422.228C30.5382 428.558 21.3651 435.647 20.1666 436.931C19.1397 438.031 20.4228 437.956 37.1762 435.946C41.6173 435.413 46.176 434.744 47.3067 434.461C49.1614 433.995 49.3624 434.261 49.3624 437.177C49.3624 440.862 49.909 440.636 37.2059 442.199C32.7485 442.748 25.8598 443.605 21.8977 444.104C17.9356 444.603 13.2168 445.197 11.4116 445.424C8.98521 445.73 7.98737 445.467 7.58457 444.417ZM0.736328 390.582V386.582L5.71902 385.015L10.7017 383.447L10.4466 374.457L10.1914 365.466L5.91411 364.103C1.78699 362.787 1.63681 362.617 1.63681 359.269C1.63681 357.36 1.75512 355.798 1.89971 355.798C2.04431 355.798 7.00823 357.644 12.9306 359.901C18.853 362.158 27.5482 365.448 32.2532 367.212C44.4463 371.782 44.1027 371.529 43.7834 375.712L43.5093 379.302L36.3054 381.789C32.3433 383.157 23.4285 386.22 16.4948 388.597C9.56106 390.973 3.17889 393.292 2.31217 393.75C0.922957 394.483 0.736328 394.108 0.736328 390.582ZM29.0109 377.437L36.1241 375.055L31.7124 373.463C29.2859 372.587 25.3218 371.091 22.9032 370.137C20.4846 369.184 18.1546 368.405 17.7254 368.405C17.2962 368.405 16.945 371.249 16.945 374.725V381.046L19.4214 380.432C20.7833 380.095 25.0986 378.747 29.0109 377.437ZM846.041 343.1C833.098 340.088 830.6 325.716 841.717 318.224C845.296 315.813 853.03 315.417 856.916 317.447C863.17 320.714 866.415 327.422 864.819 333.782C864.002 337.035 858.521 342.045 855.005 342.751C853.431 343.067 851.535 343.453 850.793 343.608C850.05 343.764 847.911 343.535 846.041 343.1ZM857.007 339.185C860.598 337.328 862.499 333.957 862.499 329.448C862.499 326.114 862.008 325.077 859.122 322.318C853.422 316.869 846.299 317.042 840.212 322.777C837.783 325.065 837.285 326.2 837.285 329.442C837.285 333.866 839.147 337.269 842.592 339.142C845.666 340.812 853.812 340.837 857.007 339.185ZM37.536 341.87C37.263 341.597 31.6067 340.596 24.9663 339.644C7.24069 337.105 3.50626 335.378 1.53906 328.812C0.202889 324.352 1.8474 315.9 4.806 312.021C8.48274 307.201 12.2941 306.544 25.3338 308.482C31.3682 309.378 38.3315 310.362 40.8078 310.668C45.2787 311.22 45.3123 311.248 45.5971 314.725L45.884 318.226L41.9952 317.725C39.8564 317.449 34.0057 316.582 28.9936 315.798C15.3397 313.661 12.8152 313.712 10.1956 316.173C7.45674 318.746 6.46685 323.425 7.91961 326.933C9.07303 329.717 10.3561 330.518 14.6938 331.159C16.1796 331.378 19.4214 331.923 21.8977 332.37C24.374 332.817 29.965 333.698 34.322 334.33L42.244 335.477L41.9762 338.659C41.7735 341.066 41.2609 341.904 39.8703 342.103C38.8594 342.248 37.809 342.143 37.536 341.87ZM751.739 339.255C751.739 337.314 752.23 337.065 757.144 336.509C760.901 336.084 763.304 335.248 765.024 333.77L767.498 331.642L767.771 288.34L768.044 245.038H762.212C752.383 245.038 747.37 246.655 742.667 251.34C739.535 254.459 738.142 256.795 736.86 261.075C735.558 265.42 734.712 266.821 733.152 267.213C732.04 267.492 730.702 267.455 730.179 267.132C729.573 266.757 729.227 261.168 729.227 251.739V236.934H782.356H835.484V252.302V267.67L833.102 267.385C831.193 267.157 830.506 266.383 829.648 263.498C825.788 250.513 819.759 245.853 805.994 245.212L797.664 244.824V287.582C797.664 329.295 797.709 330.399 799.506 332.683C801.459 335.166 806.112 336.874 810.946 336.883C813.466 336.887 813.873 337.2 813.873 339.139V341.39H782.806H751.739V339.255ZM800.213 336.732C797.637 335.238 796.695 333.964 795.936 330.951C795.308 328.456 794.963 312.217 794.963 285.161V243.237L804.643 243.257C814.998 243.278 820.016 244.706 824.544 248.921C826.851 251.069 831.882 260.392 831.882 262.519C831.882 263.247 832.288 264.093 832.783 264.399C833.367 264.76 833.683 260.361 833.683 251.859V238.763L782.806 238.75L731.929 238.738V251.973C731.929 259.611 732.263 264.847 732.719 264.354C733.153 263.883 734.18 261.428 735 258.898C736.9 253.038 741.555 247.592 746.752 245.149C750.091 243.58 752.514 243.237 760.284 243.237H769.749V287.319C769.749 317.442 769.436 332.088 768.759 333.573C768.215 334.767 766.493 336.381 764.932 337.159C762.269 338.487 763.366 338.576 782.806 338.61L803.517 338.647L800.213 336.732ZM34.0542 285.399C17.9204 281.34 15.2432 280.254 12.0664 276.479C9.42569 273.341 9.03847 269.153 10.9676 264.595C12.912 260.001 15.4832 258.29 21.1483 257.82C26.1366 257.407 26.2143 257.436 25.6491 259.548C25.3328 260.73 25.0684 262.204 25.0617 262.823C25.0543 263.497 23.8401 263.948 22.0373 263.948C16.4762 263.948 13.7518 270.509 18.1234 273.373C19.2668 274.123 26.6187 276.373 34.461 278.373C42.3034 280.374 49.0685 282.227 49.4947 282.49C50.2819 282.977 49.5925 287.357 48.5708 288.361C48.2633 288.663 41.7308 287.33 34.0542 285.399ZM52.5141 248.136C50.0378 247.021 41.7308 243.38 34.0542 240.045C26.3776 236.709 19.9655 233.872 19.8052 233.74C19.4611 233.456 22.2405 227.929 22.7272 227.929C22.9103 227.929 28.269 230.196 34.6354 232.968C41.0019 235.739 49.5716 239.434 53.6792 241.178C58.1709 243.087 60.9527 244.757 60.6586 245.37C60.3895 245.931 59.9266 247.07 59.6298 247.903C58.7857 250.271 57.3609 250.317 52.5141 248.136ZM62.1243 221.774C60.2454 220.329 60.1754 220.039 61.4489 218.982C62.2303 218.334 62.8697 217.409 62.8697 216.927C62.8697 216.445 63.7243 214.85 64.7689 213.383C65.8134 211.917 66.5157 210.564 66.3293 210.378C65.9439 209.992 46.6016 199.052 40.1401 195.565C35.386 192.999 35.1426 192.387 37.6719 189.351L39.4287 187.243L42.3695 189.037C45.8575 191.165 49.4944 193.209 61.3929 199.726C71.3242 205.166 70.5104 205.273 74.7547 197.971C75.8396 196.105 77.155 194.788 77.6777 195.044C78.2004 195.301 79.3373 195.761 80.204 196.066C81.7801 196.622 82.4504 199.114 81.0239 199.114C80.6081 199.114 79.8523 200.025 79.3443 201.14C77.9164 204.272 65.3691 223.429 64.7604 223.407C64.4634 223.396 63.2771 222.661 62.1243 221.774Z" fill="#003866"/>
</svg>
